<?xml version="1.0" encoding="UTF-8" standalone="no"?>
<!DOCTYPE svg PUBLIC "-//W3C//DTD SVG 1.1//EN"
 "http://www.w3.org/Graphics/SVG/1.1/DTD/svg11.dtd">
<!-- Generated by graphviz version 3.0.1~dev.20220405.0544 (20220405.0544)
 -->
<!-- Title: G Pages: 1 -->
<svg width="693pt" height="1285pt"
 viewBox="0.00 0.00 692.97 1285.35" xmlns="http://www.w3.org/2000/svg" xmlns:xlink="http://www.w3.org/1999/xlink">
<g id="graph0" class="graph" transform="scale(1 1) rotate(0) translate(4 1281.35)">
<title>G</title><style>.edge>path:hover{stroke-width:8}</style>
<polygon fill="white" stroke="transparent" points="-4,4 -4,-1281.35 688.97,-1281.35 688.97,4 -4,4"/>
<!-- rcmpy___main__ -->
<g id="node1" class="node">
<title>rcmpy___main__</title><style>.edge>path:hover{stroke-width:8}</style>
<ellipse fill="#ac4949" stroke="black" cx="99.07" cy="-18" rx="54.15" ry="18"/>
<text text-anchor="middle" x="99.07" y="-15" font-family="Helvetica,sans-Serif" font-size="10.00" fill="#ffffff">rcmpy.__main__</text>
</g>
<!-- rcmpy_app -->
<g id="node2" class="node">
<title>rcmpy_app</title><style>.edge>path:hover{stroke-width:8}</style>
<ellipse fill="#a13535" stroke="black" cx="99.07" cy="-162" rx="37.89" ry="18"/>
<text text-anchor="middle" x="99.07" y="-159" font-family="Helvetica,sans-Serif" font-size="10.00" fill="#ffffff">rcmpy.app</text>
</g>
<!-- rcmpy_entry -->
<g id="node8" class="node">
<title>rcmpy_entry</title><style>.edge>path:hover{stroke-width:8}</style>
<ellipse fill="#b83d3d" stroke="black" cx="99.07" cy="-90" rx="41.06" ry="18"/>
<text text-anchor="middle" x="99.07" y="-87" font-family="Helvetica,sans-Serif" font-size="10.00" fill="#ffffff">rcmpy.entry</text>
</g>
<!-- rcmpy_app&#45;&gt;rcmpy_entry -->
<g id="edge1" class="edge">
<title>rcmpy_app&#45;&gt;rcmpy_entry</title><style>.edge>path:hover{stroke-width:8}</style>
<path fill="none" stroke="black" d="M99.07,-143.7C99.07,-135.98 99.07,-126.71 99.07,-118.11"/>
<polygon fill="#a13535" stroke="black" points="102.57,-118.1 99.07,-108.1 95.57,-118.1 102.57,-118.1"/>
</g>
<!-- rcmpy_commands -->
<g id="node3" class="node">
<title>rcmpy_commands</title><style>.edge>path:hover{stroke-width:8}</style>
<ellipse fill="#ce3b3b" stroke="black" cx="57.07" cy="-234" rx="57.14" ry="18"/>
<text text-anchor="middle" x="57.07" y="-231" font-family="Helvetica,sans-Serif" font-size="10.00" fill="#ffffff">rcmpy.commands</text>
</g>
<!-- rcmpy_commands&#45;&gt;rcmpy_app -->
<g id="edge2" class="edge">
<title>rcmpy_commands&#45;&gt;rcmpy_app</title><style>.edge>path:hover{stroke-width:8}</style>
<path fill="none" stroke="black" d="M67.24,-216.05C72.19,-207.8 78.25,-197.7 83.75,-188.54"/>
<polygon fill="#ce3b3b" stroke="black" points="86.85,-190.16 89,-179.79 80.85,-186.56 86.85,-190.16"/>
</g>
<!-- rcmpy_commands_all -->
<g id="node4" class="node">
<title>rcmpy_commands_all</title><style>.edge>path:hover{stroke-width:8}</style>
<ellipse fill="#993333" stroke="black" cx="142.07" cy="-319.11" rx="47.72" ry="31.23"/>
<text text-anchor="middle" x="142.07" y="-328.11" font-family="Helvetica,sans-Serif" font-size="10.00" fill="#ffffff">rcmpy.</text>
<text text-anchor="middle" x="142.07" y="-316.11" font-family="Helvetica,sans-Serif" font-size="10.00" fill="#ffffff">commands.</text>
<text text-anchor="middle" x="142.07" y="-304.11" font-family="Helvetica,sans-Serif" font-size="10.00" fill="#ffffff">all</text>
</g>
<!-- rcmpy_commands_all&#45;&gt;rcmpy_app -->
<g id="edge3" class="edge">
<title>rcmpy_commands_all&#45;&gt;rcmpy_app</title><style>.edge>path:hover{stroke-width:8}</style>
<path fill="none" stroke="black" d="M148.56,-288.06C150.58,-271.52 150.45,-251.13 142.07,-235"/>
</g>
<!-- rcmpy_commands_apply -->
<g id="node5" class="node">
<title>rcmpy_commands_apply</title><style>.edge>path:hover{stroke-width:8}</style>
<ellipse fill="#b83d3d" stroke="black" cx="256.07" cy="-417.34" rx="47.72" ry="31.23"/>
<text text-anchor="middle" x="256.07" y="-426.34" font-family="Helvetica,sans-Serif" font-size="10.00" fill="#ffffff">rcmpy.</text>
<text text-anchor="middle" x="256.07" y="-414.34" font-family="Helvetica,sans-Serif" font-size="10.00" fill="#ffffff">commands.</text>
<text text-anchor="middle" x="256.07" y="-402.34" font-family="Helvetica,sans-Serif" font-size="10.00" fill="#ffffff">apply</text>
</g>
<!-- rcmpy_commands_apply&#45;&gt;rcmpy_commands_all -->
<g id="edge4" class="edge">
<title>rcmpy_commands_apply&#45;&gt;rcmpy_commands_all</title><style>.edge>path:hover{stroke-width:8}</style>
<path fill="none" stroke="black" d="M227.6,-392.3C212.77,-379.79 194.48,-364.35 178.62,-350.96"/>
<polygon fill="#b83d3d" stroke="black" points="180.48,-347.95 170.58,-344.17 175.96,-353.3 180.48,-347.95"/>
</g>
<!-- rcmpy_commands_use -->
<g id="node6" class="node">
<title>rcmpy_commands_use</title><style>.edge>path:hover{stroke-width:8}</style>
<ellipse fill="#b83d3d" stroke="black" cx="142.07" cy="-417.34" rx="47.72" ry="31.23"/>
<text text-anchor="middle" x="142.07" y="-426.34" font-family="Helvetica,sans-Serif" font-size="10.00" fill="#ffffff">rcmpy.</text>
<text text-anchor="middle" x="142.07" y="-414.34" font-family="Helvetica,sans-Serif" font-size="10.00" fill="#ffffff">commands.</text>
<text text-anchor="middle" x="142.07" y="-402.34" font-family="Helvetica,sans-Serif" font-size="10.00" fill="#ffffff">use</text>
</g>
<!-- rcmpy_commands_use&#45;&gt;rcmpy_commands_all -->
<g id="edge5" class="edge">
<title>rcmpy_commands_use&#45;&gt;rcmpy_commands_all</title><style>.edge>path:hover{stroke-width:8}</style>
<path fill="none" stroke="black" d="M142.07,-386.16C142.07,-378.08 142.07,-369.23 142.07,-360.69"/>
<polygon fill="#b83d3d" stroke="black" points="145.57,-360.52 142.07,-350.52 138.57,-360.52 145.57,-360.52"/>
</g>
<!-- rcmpy_config -->
<g id="node7" class="node">
<title>rcmpy_config</title><style>.edge>path:hover{stroke-width:8}</style>
<ellipse fill="#964040" stroke="black" cx="404.07" cy="-417.34" rx="43.92" ry="18"/>
<text text-anchor="middle" x="404.07" y="-414.34" font-family="Helvetica,sans-Serif" font-size="10.00" fill="#ffffff">rcmpy.config</text>
</g>
<!-- rcmpy_entry&#45;&gt;rcmpy___main__ -->
<g id="edge6" class="edge">
<title>rcmpy_entry&#45;&gt;rcmpy___main__</title><style>.edge>path:hover{stroke-width:8}</style>
<path fill="none" stroke="black" d="M99.07,-71.7C99.07,-63.98 99.07,-54.71 99.07,-46.11"/>
<polygon fill="#b83d3d" stroke="black" points="102.57,-46.1 99.07,-36.1 95.57,-46.1 102.57,-46.1"/>
</g>
<!-- rcmpy_schemas -->
<g id="node9" class="node">
<title>rcmpy_schemas</title><style>.edge>path:hover{stroke-width:8}</style>
<ellipse fill="#913030" stroke="black" cx="450.07" cy="-502.45" rx="51.95" ry="18"/>
<text text-anchor="middle" x="450.07" y="-499.45" font-family="Helvetica,sans-Serif" font-size="10.00" fill="#ffffff">rcmpy.schemas</text>
</g>
<!-- rcmpy_schemas&#45;&gt;rcmpy_config -->
<g id="edge7" class="edge">
<title>rcmpy_schemas&#45;&gt;rcmpy_config</title><style>.edge>path:hover{stroke-width:8}</style>
<path fill="none" stroke="black" d="M440.76,-484.63C434.34,-473.03 425.68,-457.38 418.38,-444.2"/>
<polygon fill="#913030" stroke="black" points="421.27,-442.19 413.37,-435.13 415.15,-445.58 421.27,-442.19"/>
</g>
<!-- vcorelib -->
<g id="node10" class="node">
<title>vcorelib</title><style>.edge>path:hover{stroke-width:8}</style>
<ellipse fill="#10f9f9" stroke="black" cx="274.07" cy="-611.45" rx="30.19" ry="18"/>
<text text-anchor="middle" x="274.07" y="-608.45" font-family="Helvetica,sans-Serif" font-size="10.00" fill="#000000">vcorelib</text>
</g>
<!-- vcorelib&#45;&gt;rcmpy_app -->
<g id="edge8" class="edge">
<title>vcorelib&#45;&gt;rcmpy_app</title><style>.edge>path:hover{stroke-width:8}</style>
<path fill="none" stroke="black" d="M332.07,-416.34C326.14,-401.67 323.32,-398.28 313.07,-386.23 304.85,-376.56 148.06,-246.18 142.07,-235"/>
</g>
<!-- vcorelib&#45;&gt;rcmpy_commands_all -->
<g id="edge9" class="edge">
<title>vcorelib&#45;&gt;rcmpy_commands_all</title><style>.edge>path:hover{stroke-width:8}</style>
<path fill="none" stroke="black" d="M332.07,-501.45C331.78,-464.51 345.92,-452.58 332.07,-418.34"/>
<path fill="none" stroke="black" d="M332.07,-416.34C326.14,-401.67 325.29,-396.28 313.07,-386.23 279.59,-358.68 233.34,-341.74 197.38,-331.9"/>
<polygon fill="#10f9f9" stroke="black" points="198.09,-328.47 187.52,-329.32 196.31,-335.24 198.09,-328.47"/>
</g>
<!-- vcorelib&#45;&gt;rcmpy_commands_apply -->
<g id="edge10" class="edge">
<title>vcorelib&#45;&gt;rcmpy_commands_apply</title><style>.edge>path:hover{stroke-width:8}</style>
<path fill="none" stroke="black" d="M332.07,-556.45C339.16,-533.99 332.26,-527.01 332.07,-503.45"/>
<path fill="none" stroke="black" d="M332.07,-501.45C331.89,-478.56 315.98,-459.23 298.77,-444.98"/>
<polygon fill="#10f9f9" stroke="black" points="300.86,-442.17 290.82,-438.8 296.56,-447.7 300.86,-442.17"/>
</g>
<!-- vcorelib&#45;&gt;rcmpy_commands_use -->
<g id="edge11" class="edge">
<title>vcorelib&#45;&gt;rcmpy_commands_use</title><style>.edge>path:hover{stroke-width:8}</style>
<path fill="none" stroke="black" d="M295.77,-598.69C309.75,-589.6 326.36,-575.53 332.07,-557.45"/>
<path fill="none" stroke="black" d="M332.07,-556.45C337.54,-539.11 243.18,-478.9 185.42,-443.97"/>
<polygon fill="#10f9f9" stroke="black" points="187.21,-440.96 176.84,-438.8 183.6,-446.95 187.21,-440.96"/>
</g>
<!-- vcorelib&#45;&gt;rcmpy_config -->
<g id="edge12" class="edge">
<title>vcorelib&#45;&gt;rcmpy_config</title><style>.edge>path:hover{stroke-width:8}</style>
<path fill="none" stroke="black" d="M332.07,-501.45C331.87,-475.23 352.61,-453.21 371.89,-438.44"/>
<polygon fill="#10f9f9" stroke="black" points="373.95,-441.27 379.99,-432.57 369.84,-435.6 373.95,-441.27"/>
</g>
<!-- vcorelib&#45;&gt;rcmpy_schemas -->
<g id="edge13" class="edge">
<title>vcorelib&#45;&gt;rcmpy_schemas</title><style>.edge>path:hover{stroke-width:8}</style>
<path fill="none" stroke="black" d="M332.07,-556.45C340.1,-531 366.1,-517.76 391.65,-510.88"/>
<polygon fill="#10f9f9" stroke="black" points="392.48,-514.28 401.39,-508.54 390.85,-507.47 392.48,-514.28"/>
</g>
<!-- vcorelib_args -->
<g id="node11" class="node">
<title>vcorelib_args</title><style>.edge>path:hover{stroke-width:8}</style>
<ellipse fill="#2fdbdb" stroke="black" cx="182.07" cy="-611.45" rx="43.92" ry="18"/>
<text text-anchor="middle" x="182.07" y="-608.45" font-family="Helvetica,sans-Serif" font-size="10.00" fill="#000000">vcorelib.args</text>
</g>
<!-- vcorelib_args&#45;&gt;rcmpy_app -->
<g id="edge14" class="edge">
<title>vcorelib_args&#45;&gt;rcmpy_app</title><style>.edge>path:hover{stroke-width:8}</style>
<path fill="none" stroke="black" d="M191.26,-593.74C195.98,-583.54 200.63,-570.07 200.07,-557.45"/>
<path fill="none" stroke="black" d="M200.07,-556.45C198.53,-521.57 162.31,-531.91 142.07,-503.45"/>
<path fill="none" stroke="black" d="M142.07,-501.45C113.06,-460.66 75.03,-467.58 66.07,-418.34"/>
<path fill="none" stroke="black" d="M66.07,-416.34C55.75,-359.61 58.22,-339.03 85.07,-288 101.18,-257.39 158.02,-265.7 142.07,-235"/>
<path fill="none" stroke="black" d="M142.07,-233C133.86,-217.68 123.72,-201.08 115.35,-187.89"/>
<polygon fill="#2fdbdb" stroke="black" points="118.23,-185.9 109.88,-179.37 112.33,-189.67 118.23,-185.9"/>
</g>
<!-- vcorelib_args&#45;&gt;rcmpy_commands_all -->
<g id="edge15" class="edge">
<title>vcorelib_args&#45;&gt;rcmpy_commands_all</title><style>.edge>path:hover{stroke-width:8}</style>
<path fill="none" stroke="black" d="M66.07,-416.34C61.17,-389.41 80.37,-365.26 100.69,-347.89"/>
<polygon fill="#2fdbdb" stroke="black" points="102.92,-350.58 108.48,-341.57 98.51,-345.15 102.92,-350.58"/>
</g>
<!-- vcorelib_args&#45;&gt;rcmpy_commands_apply -->
<g id="edge16" class="edge">
<title>vcorelib_args&#45;&gt;rcmpy_commands_apply</title><style>.edge>path:hover{stroke-width:8}</style>
<path fill="none" stroke="black" d="M200.07,-556.45C199.47,-519.96 216.54,-481.75 231.98,-454.8"/>
<polygon fill="#2fdbdb" stroke="black" points="235.04,-456.49 237.13,-446.1 229.02,-452.93 235.04,-456.49"/>
</g>
<!-- vcorelib_args&#45;&gt;rcmpy_commands_use -->
<g id="edge17" class="edge">
<title>vcorelib_args&#45;&gt;rcmpy_commands_use</title><style>.edge>path:hover{stroke-width:8}</style>
<path fill="none" stroke="black" d="M142.07,-501.45C133.31,-489.13 131.72,-472.96 132.9,-458.17"/>
<polygon fill="#2fdbdb" stroke="black" points="136.38,-458.56 134.11,-448.21 129.43,-457.71 136.38,-458.56"/>
</g>
<!-- vcorelib_dict -->
<g id="node12" class="node">
<title>vcorelib_dict</title><style>.edge>path:hover{stroke-width:8}</style>
<ellipse fill="#3bcece" stroke="black" cx="505.07" cy="-1259.35" rx="41.24" ry="18"/>
<text text-anchor="middle" x="505.07" y="-1256.35" font-family="Helvetica,sans-Serif" font-size="10.00" fill="#000000">vcorelib.dict</text>
</g>
<!-- vcorelib_dict&#45;&gt;rcmpy_schemas -->
<g id="edge18" class="edge">
<title>vcorelib_dict&#45;&gt;rcmpy_schemas</title><style>.edge>path:hover{stroke-width:8}</style>
<path fill="none" stroke="black" d="M505.85,-1241.13C506.13,-1230.75 506.15,-1217.27 505.07,-1205.35"/>
<path fill="none" stroke="black" d="M505.07,-1204.35C502.7,-1178.15 473.14,-1189.92 458.07,-1168.35 350.42,-1014.29 332.07,-952.62 332.07,-764.68 332.07,-764.68 332.07,-764.68 332.07,-695.56 332.07,-605.59 463.03,-645.79 480.07,-557.45"/>
<path fill="none" stroke="black" d="M480.07,-556.45C479.24,-546.55 474.97,-536.77 469.91,-528.36"/>
<polygon fill="#3bcece" stroke="black" points="472.68,-526.21 464.22,-519.84 466.86,-530.1 472.68,-526.21"/>
</g>
<!-- vcorelib_io -->
<g id="node14" class="node">
<title>vcorelib_io</title><style>.edge>path:hover{stroke-width:8}</style>
<ellipse fill="#0bd6d6" stroke="black" cx="571.07" cy="-1052.13" rx="36.89" ry="18"/>
<text text-anchor="middle" x="571.07" y="-1049.13" font-family="Helvetica,sans-Serif" font-size="10.00" fill="#000000">vcorelib.io</text>
</g>
<!-- vcorelib_dict&#45;&gt;vcorelib_io -->
<g id="edge19" class="edge">
<title>vcorelib_dict&#45;&gt;vcorelib_io</title><style>.edge>path:hover{stroke-width:8}</style>
<path fill="none" stroke="black" d="M505.07,-1204.35C503.33,-1178.1 538.54,-1190.92 552.07,-1168.35 568.15,-1141.55 571.75,-1105.23 572.08,-1080.59"/>
<polygon fill="#3bcece" stroke="black" points="575.58,-1080.47 572.03,-1070.48 568.58,-1080.5 575.58,-1080.47"/>
</g>
<!-- vcorelib_io_types -->
<g id="node15" class="node">
<title>vcorelib_io_types</title><style>.edge>path:hover{stroke-width:8}</style>
<ellipse fill="#0ce9e9" stroke="black" cx="505.07" cy="-1137.24" rx="37.79" ry="31.23"/>
<text text-anchor="middle" x="505.07" y="-1146.24" font-family="Helvetica,sans-Serif" font-size="10.00" fill="#000000">vcorelib.</text>
<text text-anchor="middle" x="505.07" y="-1134.24" font-family="Helvetica,sans-Serif" font-size="10.00" fill="#000000">io.</text>
<text text-anchor="middle" x="505.07" y="-1122.24" font-family="Helvetica,sans-Serif" font-size="10.00" fill="#000000">types</text>
</g>
<!-- vcorelib_dict&#45;&gt;vcorelib_io_types -->
<g id="edge20" class="edge">
<title>vcorelib_dict&#45;&gt;vcorelib_io_types</title><style>.edge>path:hover{stroke-width:8}</style>
<path fill="none" stroke="black" d="M505.07,-1204.35C504.52,-1196.05 504.28,-1187.14 504.22,-1178.64"/>
<polygon fill="#3bcece" stroke="black" points="507.72,-1178.55 504.23,-1168.55 500.72,-1178.54 507.72,-1178.55"/>
</g>
<!-- vcorelib_dict_codec -->
<g id="node13" class="node">
<title>vcorelib_dict_codec</title><style>.edge>path:hover{stroke-width:8}</style>
<ellipse fill="#409696" stroke="black" cx="561.07" cy="-696.56" rx="37.79" ry="31.23"/>
<text text-anchor="middle" x="561.07" y="-705.56" font-family="Helvetica,sans-Serif" font-size="10.00" fill="#ffffff">vcorelib.</text>
<text text-anchor="middle" x="561.07" y="-693.56" font-family="Helvetica,sans-Serif" font-size="10.00" fill="#ffffff">dict.</text>
<text text-anchor="middle" x="561.07" y="-681.56" font-family="Helvetica,sans-Serif" font-size="10.00" fill="#ffffff">codec</text>
</g>
<!-- vcorelib_dict_codec&#45;&gt;rcmpy_schemas -->
<g id="edge21" class="edge">
<title>vcorelib_dict_codec&#45;&gt;rcmpy_schemas</title><style>.edge>path:hover{stroke-width:8}</style>
<path fill="none" stroke="black" d="M536.01,-673.24C520.8,-657.89 502.88,-636.07 495.07,-612.45"/>
</g>
<!-- vcorelib_io&#45;&gt;rcmpy_config -->
<g id="edge22" class="edge">
<title>vcorelib_io&#45;&gt;rcmpy_config</title><style>.edge>path:hover{stroke-width:8}</style>
<path fill="none" stroke="black" d="M646.07,-830.79C637.99,-772.13 646.07,-756.77 646.07,-697.56 646.07,-697.56 646.07,-697.56 646.07,-556.45 646.07,-469.54 526.88,-436.59 455.79,-424.67"/>
<polygon fill="#0bd6d6" stroke="black" points="456.1,-421.18 445.67,-423.06 455,-428.09 456.1,-421.18"/>
</g>
<!-- vcorelib_io&#45;&gt;vcorelib_dict_codec -->
<g id="edge23" class="edge">
<title>vcorelib_io&#45;&gt;vcorelib_dict_codec</title><style>.edge>path:hover{stroke-width:8}</style>
<path fill="none" stroke="black" d="M646.07,-929.01C645.38,-886.25 651.91,-875.16 646.07,-832.79"/>
<path fill="none" stroke="black" d="M646.07,-830.79C641.44,-797.22 628.69,-791.58 608.07,-764.68"/>
<path fill="none" stroke="black" d="M608.07,-763.68C600.37,-753.63 592.29,-742.5 585.04,-732.27"/>
<polygon fill="#0bd6d6" stroke="black" points="587.79,-730.1 579.17,-723.94 582.07,-734.13 587.79,-730.1"/>
</g>
<!-- vcorelib_schemas -->
<g id="node16" class="node">
<title>vcorelib_schemas</title><style>.edge>path:hover{stroke-width:8}</style>
<ellipse fill="#20b6b6" stroke="black" cx="578.07" cy="-831.79" rx="39.72" ry="22.76"/>
<text text-anchor="middle" x="578.07" y="-834.79" font-family="Helvetica,sans-Serif" font-size="10.00" fill="#000000">vcorelib.</text>
<text text-anchor="middle" x="578.07" y="-822.79" font-family="Helvetica,sans-Serif" font-size="10.00" fill="#000000">schemas</text>
</g>
<!-- vcorelib_io&#45;&gt;vcorelib_schemas -->
<g id="edge24" class="edge">
<title>vcorelib_io&#45;&gt;vcorelib_schemas</title><style>.edge>path:hover{stroke-width:8}</style>
<path fill="none" stroke="black" d="M589.74,-1036.49C614.23,-1015.38 653.33,-974.17 646.07,-931.01"/>
<path fill="none" stroke="black" d="M646.07,-929.01C645.62,-901.1 626.32,-875.59 608.4,-857.87"/>
<polygon fill="#0bd6d6" stroke="black" points="610.54,-855.07 600.86,-850.76 605.73,-860.17 610.54,-855.07"/>
</g>
<!-- vcorelib_schemas_base -->
<g id="node17" class="node">
<title>vcorelib_schemas_base</title><style>.edge>path:hover{stroke-width:8}</style>
<ellipse fill="#23c8c8" stroke="black" cx="538.07" cy="-930.01" rx="41.65" ry="31.23"/>
<text text-anchor="middle" x="538.07" y="-939.01" font-family="Helvetica,sans-Serif" font-size="10.00" fill="#000000">vcorelib.</text>
<text text-anchor="middle" x="538.07" y="-927.01" font-family="Helvetica,sans-Serif" font-size="10.00" fill="#000000">schemas.</text>
<text text-anchor="middle" x="538.07" y="-915.01" font-family="Helvetica,sans-Serif" font-size="10.00" fill="#000000">base</text>
</g>
<!-- vcorelib_io&#45;&gt;vcorelib_schemas_base -->
<g id="edge25" class="edge">
<title>vcorelib_io&#45;&gt;vcorelib_schemas_base</title><style>.edge>path:hover{stroke-width:8}</style>
<path fill="none" stroke="black" d="M542.98,-1040.52C525.84,-1032.03 507.03,-1018.2 506.07,-998.13"/>
</g>
<!-- vcorelib_schemas_json -->
<g id="node18" class="node">
<title>vcorelib_schemas_json</title><style>.edge>path:hover{stroke-width:8}</style>
<ellipse fill="#409696" stroke="black" cx="440.07" cy="-831.79" rx="41.65" ry="31.23"/>
<text text-anchor="middle" x="440.07" y="-840.79" font-family="Helvetica,sans-Serif" font-size="10.00" fill="#ffffff">vcorelib.</text>
<text text-anchor="middle" x="440.07" y="-828.79" font-family="Helvetica,sans-Serif" font-size="10.00" fill="#ffffff">schemas.</text>
<text text-anchor="middle" x="440.07" y="-816.79" font-family="Helvetica,sans-Serif" font-size="10.00" fill="#ffffff">json</text>
</g>
<!-- vcorelib_io&#45;&gt;vcorelib_schemas_json -->
<g id="edge26" class="edge">
<title>vcorelib_io&#45;&gt;vcorelib_schemas_json</title><style>.edge>path:hover{stroke-width:8}</style>
<path fill="none" stroke="black" d="M544.89,-1039.36C527.61,-1030.35 505.72,-1016.38 492.07,-998.13 464.34,-961.07 451.16,-908.85 445.06,-873.07"/>
<polygon fill="#0bd6d6" stroke="black" points="448.48,-872.31 443.45,-862.99 441.57,-873.41 448.48,-872.31"/>
</g>
<!-- vcorelib_io_types&#45;&gt;rcmpy_config -->
<g id="edge27" class="edge">
<title>vcorelib_io_types&#45;&gt;rcmpy_config</title><style>.edge>path:hover{stroke-width:8}</style>
<path fill="none" stroke="black" d="M506.85,-1105.79C507.41,-1090.04 507.55,-1070.52 506.07,-1053.13"/>
<path fill="none" stroke="black" d="M506.07,-1051.13C500.72,-988.18 437.92,-993.7 430.07,-931.01"/>
<path fill="none" stroke="black" d="M430.07,-929.01C415.71,-897.56 401.67,-895.1 389.07,-862.9 372.86,-821.5 370.07,-809.14 370.07,-764.68 370.07,-764.68 370.07,-764.68 370.07,-556.45 370.07,-516.82 383.43,-472.59 393.41,-445.11"/>
<polygon fill="#0ce9e9" stroke="black" points="396.8,-446.04 397.03,-435.45 390.24,-443.58 396.8,-446.04"/>
</g>
<!-- vcorelib_io_types&#45;&gt;vcorelib_dict_codec -->
<g id="edge28" class="edge">
<title>vcorelib_io_types&#45;&gt;vcorelib_dict_codec</title><style>.edge>path:hover{stroke-width:8}</style>
<path fill="none" stroke="black" d="M540.44,-1126.48C592.6,-1109.67 684.07,-1069.96 684.07,-998.13 684.07,-998.13 684.07,-998.13 684.07,-929.01 684.07,-870.99 691.63,-849.37 660.07,-800.68 644.78,-777.09 625.17,-786.99 608.07,-764.68"/>
</g>
<!-- vcorelib_io_types&#45;&gt;vcorelib_io -->
<g id="edge29" class="edge">
<title>vcorelib_io_types&#45;&gt;vcorelib_io</title><style>.edge>path:hover{stroke-width:8}</style>
<path fill="none" stroke="black" d="M525.23,-1110.85C533.73,-1100.15 543.57,-1087.76 551.95,-1077.21"/>
<polygon fill="#0ce9e9" stroke="black" points="554.82,-1079.22 558.3,-1069.21 549.34,-1074.86 554.82,-1079.22"/>
</g>
<!-- vcorelib_io_types&#45;&gt;vcorelib_schemas -->
<g id="edge30" class="edge">
<title>vcorelib_io_types&#45;&gt;vcorelib_schemas</title><style>.edge>path:hover{stroke-width:8}</style>
<path fill="none" stroke="black" d="M506.07,-1051.13C500.19,-997.03 569.27,-1011.81 589.07,-961.13 601.36,-929.68 595.33,-890.7 588.31,-864"/>
<polygon fill="#0ce9e9" stroke="black" points="591.59,-862.73 585.51,-854.06 584.86,-864.63 591.59,-862.73"/>
</g>
<!-- vcorelib_io_types&#45;&gt;vcorelib_schemas_base -->
<g id="edge31" class="edge">
<title>vcorelib_io_types&#45;&gt;vcorelib_schemas_base</title><style>.edge>path:hover{stroke-width:8}</style>
<path fill="none" stroke="black" d="M506.07,-1051.13C503.52,-1027.71 507.2,-1021.66 506.07,-998.13"/>
<path fill="none" stroke="black" d="M506.07,-997.13C505.56,-986.51 508.78,-975.8 513.35,-966.18"/>
<polygon fill="#0ce9e9" stroke="black" points="516.45,-967.8 518.06,-957.33 510.27,-964.5 516.45,-967.8"/>
</g>
<!-- vcorelib_io_types&#45;&gt;vcorelib_schemas_json -->
<g id="edge32" class="edge">
<title>vcorelib_io_types&#45;&gt;vcorelib_schemas_json</title><style>.edge>path:hover{stroke-width:8}</style>
<path fill="none" stroke="black" d="M430.07,-929.01C427.77,-910.66 429.3,-890.29 431.79,-873.03"/>
<polygon fill="#0ce9e9" stroke="black" points="435.32,-873.16 433.44,-862.73 428.4,-872.05 435.32,-873.16"/>
</g>
<!-- vcorelib_schemas&#45;&gt;rcmpy_schemas -->
<g id="edge33" class="edge">
<title>vcorelib_schemas&#45;&gt;rcmpy_schemas</title><style>.edge>path:hover{stroke-width:8}</style>
<path fill="none" stroke="black" d="M560.58,-811.2C550.62,-798.79 538.97,-781.88 533.07,-764.68"/>
<path fill="none" stroke="black" d="M533.07,-763.68C522.07,-731.62 496.9,-731.41 495.07,-697.56"/>
</g>
<!-- vcorelib_schemas&#45;&gt;vcorelib_dict_codec -->
<g id="edge34" class="edge">
<title>vcorelib_schemas&#45;&gt;vcorelib_dict_codec</title><style>.edge>path:hover{stroke-width:8}</style>
<path fill="none" stroke="black" d="M533.07,-763.68C529.48,-753.21 531.75,-742.04 536.25,-731.93"/>
<polygon fill="#20b6b6" stroke="black" points="539.39,-733.47 540.9,-722.98 533.18,-730.24 539.39,-733.47"/>
</g>
<!-- vcorelib_schemas_base&#45;&gt;rcmpy_schemas -->
<g id="edge35" class="edge">
<title>vcorelib_schemas_base&#45;&gt;rcmpy_schemas</title><style>.edge>path:hover{stroke-width:8}</style>
<path fill="none" stroke="black" d="M523.86,-900.68C509.22,-868.29 489.3,-813.44 495.07,-764.68"/>
<path fill="none" stroke="black" d="M495.07,-763.68C500.41,-734.78 496.66,-726.9 495.07,-697.56"/>
</g>
<!-- vcorelib_schemas_base&#45;&gt;vcorelib_dict_codec -->
<g id="edge36" class="edge">
<title>vcorelib_schemas_base&#45;&gt;vcorelib_dict_codec</title><style>.edge>path:hover{stroke-width:8}</style>
<path fill="none" stroke="black" d="M495.07,-763.68C497.11,-746.47 508.94,-732.11 522.03,-721.22"/>
<polygon fill="#23c8c8" stroke="black" points="524.47,-723.76 530.27,-714.89 520.21,-718.21 524.47,-723.76"/>
</g>
<!-- vcorelib_schemas_base&#45;&gt;vcorelib_schemas -->
<g id="edge37" class="edge">
<title>vcorelib_schemas_base&#45;&gt;vcorelib_schemas</title><style>.edge>path:hover{stroke-width:8}</style>
<path fill="none" stroke="black" d="M550.07,-900.14C554.89,-888.55 560.45,-875.18 565.34,-863.42"/>
<polygon fill="#23c8c8" stroke="black" points="568.65,-864.57 569.26,-853.99 562.19,-861.88 568.65,-864.57"/>
</g>
<!-- vcorelib_schemas_base&#45;&gt;vcorelib_schemas_json -->
<g id="edge38" class="edge">
<title>vcorelib_schemas_base&#45;&gt;vcorelib_schemas_json</title><style>.edge>path:hover{stroke-width:8}</style>
<path fill="none" stroke="black" d="M513.34,-904.73C500.81,-892.42 485.44,-877.33 472.02,-864.16"/>
<polygon fill="#23c8c8" stroke="black" points="474.38,-861.57 464.79,-857.06 469.48,-866.57 474.38,-861.57"/>
</g>
<!-- vcorelib_schemas_json&#45;&gt;rcmpy_schemas -->
<g id="edge39" class="edge">
<title>vcorelib_schemas_json&#45;&gt;rcmpy_schemas</title><style>.edge>path:hover{stroke-width:8}</style>
<path fill="none" stroke="black" d="M458.69,-803.55C474.65,-777.53 495.07,-736.6 495.07,-697.56"/>
<path fill="none" stroke="black" d="M495.07,-695.56C493.08,-658.68 506.66,-647.52 495.07,-612.45"/>
<path fill="none" stroke="black" d="M495.07,-610.45C487.39,-587.21 475.43,-581.49 480.07,-557.45"/>
</g>
</g>
</svg>
