<?xml version="1.0" encoding="UTF-8" standalone="no"?>
<!DOCTYPE svg PUBLIC "-//W3C//DTD SVG 1.1//EN"
 "http://www.w3.org/Graphics/SVG/1.1/DTD/svg11.dtd">
<!-- Generated by graphviz version 3.0.1~dev.20220405.0544 (20220405.0544)
 -->
<!-- Title: G Pages: 1 -->
<svg width="925pt" height="1485pt"
 viewBox="0.00 0.00 924.60 1484.86" xmlns="http://www.w3.org/2000/svg" xmlns:xlink="http://www.w3.org/1999/xlink">
<g id="graph0" class="graph" transform="scale(1 1) rotate(0) translate(4 1480.86)">
<title>G</title><style>.edge>path:hover{stroke-width:8}</style>
<polygon fill="white" stroke="transparent" points="-4,4 -4,-1480.86 920.6,-1480.86 920.6,4 -4,4"/>
<!-- rcmpy___main__ -->
<g id="node1" class="node">
<title>rcmpy___main__</title><style>.edge>path:hover{stroke-width:8}</style>
<ellipse fill="#ac4949" stroke="black" cx="626.84" cy="-18" rx="54.15" ry="18"/>
<text text-anchor="middle" x="626.84" y="-15" font-family="Helvetica,sans-Serif" font-size="10.00" fill="#ffffff">rcmpy.__main__</text>
</g>
<!-- rcmpy_app -->
<g id="node2" class="node">
<title>rcmpy_app</title><style>.edge>path:hover{stroke-width:8}</style>
<ellipse fill="#a13535" stroke="black" cx="626.84" cy="-162" rx="37.89" ry="18"/>
<text text-anchor="middle" x="626.84" y="-159" font-family="Helvetica,sans-Serif" font-size="10.00" fill="#ffffff">rcmpy.app</text>
</g>
<!-- rcmpy_entry -->
<g id="node9" class="node">
<title>rcmpy_entry</title><style>.edge>path:hover{stroke-width:8}</style>
<ellipse fill="#b83d3d" stroke="black" cx="626.84" cy="-90" rx="41.06" ry="18"/>
<text text-anchor="middle" x="626.84" y="-87" font-family="Helvetica,sans-Serif" font-size="10.00" fill="#ffffff">rcmpy.entry</text>
</g>
<!-- rcmpy_app&#45;&gt;rcmpy_entry -->
<g id="edge1" class="edge">
<title>rcmpy_app&#45;&gt;rcmpy_entry</title><style>.edge>path:hover{stroke-width:8}</style>
<path fill="none" stroke="black" d="M626.84,-143.7C626.84,-135.98 626.84,-126.71 626.84,-118.11"/>
<polygon fill="#a13535" stroke="black" points="630.34,-118.1 626.84,-108.1 623.34,-118.1 630.34,-118.1"/>
</g>
<!-- rcmpy_commands -->
<g id="node3" class="node">
<title>rcmpy_commands</title><style>.edge>path:hover{stroke-width:8}</style>
<ellipse fill="#ce3b3b" stroke="black" cx="584.84" cy="-234" rx="57.14" ry="18"/>
<text text-anchor="middle" x="584.84" y="-231" font-family="Helvetica,sans-Serif" font-size="10.00" fill="#ffffff">rcmpy.commands</text>
</g>
<!-- rcmpy_commands&#45;&gt;rcmpy_app -->
<g id="edge2" class="edge">
<title>rcmpy_commands&#45;&gt;rcmpy_app</title><style>.edge>path:hover{stroke-width:8}</style>
<path fill="none" stroke="black" d="M595.01,-216.05C599.96,-207.8 606.02,-197.7 611.52,-188.54"/>
<polygon fill="#ce3b3b" stroke="black" points="614.62,-190.16 616.77,-179.79 608.62,-186.56 614.62,-190.16"/>
</g>
<!-- rcmpy_commands_all -->
<g id="node4" class="node">
<title>rcmpy_commands_all</title><style>.edge>path:hover{stroke-width:8}</style>
<ellipse fill="#913030" stroke="black" cx="669.84" cy="-319.11" rx="47.72" ry="31.23"/>
<text text-anchor="middle" x="669.84" y="-328.11" font-family="Helvetica,sans-Serif" font-size="10.00" fill="#ffffff">rcmpy.</text>
<text text-anchor="middle" x="669.84" y="-316.11" font-family="Helvetica,sans-Serif" font-size="10.00" fill="#ffffff">commands.</text>
<text text-anchor="middle" x="669.84" y="-304.11" font-family="Helvetica,sans-Serif" font-size="10.00" fill="#ffffff">all</text>
</g>
<!-- rcmpy_commands_all&#45;&gt;rcmpy_app -->
<g id="edge3" class="edge">
<title>rcmpy_commands_all&#45;&gt;rcmpy_app</title><style>.edge>path:hover{stroke-width:8}</style>
<path fill="none" stroke="black" d="M673.66,-287.98C674.74,-271.96 674.56,-252.11 669.84,-235"/>
</g>
<!-- rcmpy_commands_apply -->
<g id="node5" class="node">
<title>rcmpy_commands_apply</title><style>.edge>path:hover{stroke-width:8}</style>
<ellipse fill="#a83838" stroke="black" cx="517.84" cy="-417.34" rx="47.72" ry="31.23"/>
<text text-anchor="middle" x="517.84" y="-426.34" font-family="Helvetica,sans-Serif" font-size="10.00" fill="#ffffff">rcmpy.</text>
<text text-anchor="middle" x="517.84" y="-414.34" font-family="Helvetica,sans-Serif" font-size="10.00" fill="#ffffff">commands.</text>
<text text-anchor="middle" x="517.84" y="-402.34" font-family="Helvetica,sans-Serif" font-size="10.00" fill="#ffffff">apply</text>
</g>
<!-- rcmpy_commands_apply&#45;&gt;rcmpy_commands_all -->
<g id="edge4" class="edge">
<title>rcmpy_commands_apply&#45;&gt;rcmpy_commands_all</title><style>.edge>path:hover{stroke-width:8}</style>
<path fill="none" stroke="black" d="M551.57,-394.98C574.01,-380.78 603.65,-362.02 627.64,-346.83"/>
<polygon fill="#a83838" stroke="black" points="629.62,-349.71 636.2,-341.41 625.88,-343.8 629.62,-349.71"/>
</g>
<!-- rcmpy_commands_use -->
<g id="node6" class="node">
<title>rcmpy_commands_use</title><style>.edge>path:hover{stroke-width:8}</style>
<ellipse fill="#a13535" stroke="black" cx="783.84" cy="-417.34" rx="47.72" ry="31.23"/>
<text text-anchor="middle" x="783.84" y="-426.34" font-family="Helvetica,sans-Serif" font-size="10.00" fill="#ffffff">rcmpy.</text>
<text text-anchor="middle" x="783.84" y="-414.34" font-family="Helvetica,sans-Serif" font-size="10.00" fill="#ffffff">commands.</text>
<text text-anchor="middle" x="783.84" y="-402.34" font-family="Helvetica,sans-Serif" font-size="10.00" fill="#ffffff">use</text>
</g>
<!-- rcmpy_commands_use&#45;&gt;rcmpy_commands_all -->
<g id="edge5" class="edge">
<title>rcmpy_commands_use&#45;&gt;rcmpy_commands_all</title><style>.edge>path:hover{stroke-width:8}</style>
<path fill="none" stroke="black" d="M755.37,-392.3C740.54,-379.79 722.25,-364.35 706.39,-350.96"/>
<polygon fill="#a13535" stroke="black" points="708.24,-347.95 698.35,-344.17 703.73,-353.3 708.24,-347.95"/>
</g>
<!-- rcmpy_commands_variant -->
<g id="node7" class="node">
<title>rcmpy_commands_variant</title><style>.edge>path:hover{stroke-width:8}</style>
<ellipse fill="#a83838" stroke="black" cx="669.84" cy="-417.34" rx="47.72" ry="31.23"/>
<text text-anchor="middle" x="669.84" y="-426.34" font-family="Helvetica,sans-Serif" font-size="10.00" fill="#ffffff">rcmpy.</text>
<text text-anchor="middle" x="669.84" y="-414.34" font-family="Helvetica,sans-Serif" font-size="10.00" fill="#ffffff">commands.</text>
<text text-anchor="middle" x="669.84" y="-402.34" font-family="Helvetica,sans-Serif" font-size="10.00" fill="#ffffff">variant</text>
</g>
<!-- rcmpy_commands_variant&#45;&gt;rcmpy_commands_all -->
<g id="edge6" class="edge">
<title>rcmpy_commands_variant&#45;&gt;rcmpy_commands_all</title><style>.edge>path:hover{stroke-width:8}</style>
<path fill="none" stroke="black" d="M669.84,-386.16C669.84,-378.08 669.84,-369.23 669.84,-360.69"/>
<polygon fill="#a83838" stroke="black" points="673.34,-360.52 669.84,-350.52 666.34,-360.52 673.34,-360.52"/>
</g>
<!-- rcmpy_config -->
<g id="node8" class="node">
<title>rcmpy_config</title><style>.edge>path:hover{stroke-width:8}</style>
<ellipse fill="#a13535" stroke="black" cx="348.84" cy="-620.71" rx="43.92" ry="18"/>
<text text-anchor="middle" x="348.84" y="-617.71" font-family="Helvetica,sans-Serif" font-size="10.00" fill="#ffffff">rcmpy.config</text>
</g>
<!-- rcmpy_environment -->
<g id="node10" class="node">
<title>rcmpy_environment</title><style>.edge>path:hover{stroke-width:8}</style>
<ellipse fill="#8a2e2e" stroke="black" cx="386.84" cy="-544.08" rx="50.45" ry="22.76"/>
<text text-anchor="middle" x="386.84" y="-547.08" font-family="Helvetica,sans-Serif" font-size="10.00" fill="#ffffff">rcmpy.</text>
<text text-anchor="middle" x="386.84" y="-535.08" font-family="Helvetica,sans-Serif" font-size="10.00" fill="#ffffff">environment</text>
</g>
<!-- rcmpy_config&#45;&gt;rcmpy_environment -->
<g id="edge7" class="edge">
<title>rcmpy_config&#45;&gt;rcmpy_environment</title><style>.edge>path:hover{stroke-width:8}</style>
<path fill="none" stroke="black" d="M357.46,-602.77C361.6,-594.64 366.69,-584.65 371.46,-575.29"/>
<polygon fill="#a13535" stroke="black" points="374.66,-576.72 376.08,-566.22 368.42,-573.54 374.66,-576.72"/>
</g>
<!-- rcmpy_entry&#45;&gt;rcmpy___main__ -->
<g id="edge8" class="edge">
<title>rcmpy_entry&#45;&gt;rcmpy___main__</title><style>.edge>path:hover{stroke-width:8}</style>
<path fill="none" stroke="black" d="M626.84,-71.7C626.84,-63.98 626.84,-54.71 626.84,-46.11"/>
<polygon fill="#b83d3d" stroke="black" points="630.34,-46.1 626.84,-36.1 623.34,-46.1 630.34,-46.1"/>
</g>
<!-- rcmpy_environment&#45;&gt;rcmpy_commands_apply -->
<g id="edge9" class="edge">
<title>rcmpy_environment&#45;&gt;rcmpy_commands_apply</title><style>.edge>path:hover{stroke-width:8}</style>
<path fill="none" stroke="black" d="M418.33,-526.19C434.26,-516.22 452.74,-502.26 464.84,-485.45"/>
<path fill="none" stroke="black" d="M464.84,-484.45C472.44,-473.9 481.1,-462.75 489.2,-452.68"/>
<polygon fill="#8a2e2e" stroke="black" points="491.96,-454.84 495.53,-444.87 486.52,-450.43 491.96,-454.84"/>
</g>
<!-- rcmpy_paths -->
<g id="node11" class="node">
<title>rcmpy_paths</title><style>.edge>path:hover{stroke-width:8}</style>
<ellipse fill="#b42d2d" stroke="black" cx="777.84" cy="-697.33" rx="42.24" ry="18"/>
<text text-anchor="middle" x="777.84" y="-694.33" font-family="Helvetica,sans-Serif" font-size="10.00" fill="#ffffff">rcmpy.paths</text>
</g>
<!-- rcmpy_paths&#45;&gt;rcmpy_commands_use -->
<g id="edge10" class="edge">
<title>rcmpy_paths&#45;&gt;rcmpy_commands_use</title><style>.edge>path:hover{stroke-width:8}</style>
<path fill="none" stroke="black" d="M768.35,-679.72C748.16,-641.95 705.92,-548.05 745.84,-485.45"/>
</g>
<!-- rcmpy_state -->
<g id="node13" class="node">
<title>rcmpy_state</title><style>.edge>path:hover{stroke-width:8}</style>
<ellipse fill="#931a1a" stroke="black" cx="638.84" cy="-620.71" rx="40.9" ry="18"/>
<text text-anchor="middle" x="638.84" y="-617.71" font-family="Helvetica,sans-Serif" font-size="10.00" fill="#ffffff">rcmpy.state</text>
</g>
<!-- rcmpy_paths&#45;&gt;rcmpy_state -->
<g id="edge11" class="edge">
<title>rcmpy_paths&#45;&gt;rcmpy_state</title><style>.edge>path:hover{stroke-width:8}</style>
<path fill="none" stroke="black" d="M752.67,-682.82C730.33,-670.83 697.51,-653.2 672.84,-639.96"/>
<polygon fill="#b42d2d" stroke="black" points="674.29,-636.77 663.82,-635.12 670.98,-642.93 674.29,-636.77"/>
</g>
<!-- rcmpy_schemas -->
<g id="node12" class="node">
<title>rcmpy_schemas</title><style>.edge>path:hover{stroke-width:8}</style>
<ellipse fill="#9b2626" stroke="black" cx="329.84" cy="-697.33" rx="51.95" ry="18"/>
<text text-anchor="middle" x="329.84" y="-694.33" font-family="Helvetica,sans-Serif" font-size="10.00" fill="#ffffff">rcmpy.schemas</text>
</g>
<!-- rcmpy_schemas&#45;&gt;rcmpy_config -->
<g id="edge12" class="edge">
<title>rcmpy_schemas&#45;&gt;rcmpy_config</title><style>.edge>path:hover{stroke-width:8}</style>
<path fill="none" stroke="black" d="M334.25,-679.02C336.54,-670.01 339.4,-658.79 341.97,-648.67"/>
<polygon fill="#9b2626" stroke="black" points="345.45,-649.22 344.52,-638.66 338.66,-647.49 345.45,-649.22"/>
</g>
<!-- rcmpy_schemas&#45;&gt;rcmpy_state -->
<g id="edge13" class="edge">
<title>rcmpy_schemas&#45;&gt;rcmpy_state</title><style>.edge>path:hover{stroke-width:8}</style>
<path fill="none" stroke="black" d="M374.39,-688.09C426.49,-678.08 515.11,-659.87 589.84,-638.71 592.78,-637.87 595.8,-636.96 598.82,-636.01"/>
<polygon fill="#9b2626" stroke="black" points="600.02,-639.3 608.43,-632.87 597.84,-632.65 600.02,-639.3"/>
</g>
<!-- rcmpy_state&#45;&gt;rcmpy_commands_use -->
<g id="edge14" class="edge">
<title>rcmpy_state&#45;&gt;rcmpy_commands_use</title><style>.edge>path:hover{stroke-width:8}</style>
<path fill="none" stroke="black" d="M660.84,-543.08C681.95,-502.61 721.3,-523.93 745.84,-485.45"/>
<path fill="none" stroke="black" d="M745.84,-484.45C751.67,-475.31 757.65,-465.26 763.1,-455.81"/>
<polygon fill="#931a1a" stroke="black" points="766.22,-457.41 768.13,-446.99 760.14,-453.94 766.22,-457.41"/>
</g>
<!-- rcmpy_state&#45;&gt;rcmpy_commands_variant -->
<g id="edge15" class="edge">
<title>rcmpy_state&#45;&gt;rcmpy_commands_variant</title><style>.edge>path:hover{stroke-width:8}</style>
<path fill="none" stroke="black" d="M643.11,-602.57C647.11,-587.29 653.54,-564.41 660.84,-545.08"/>
<path fill="none" stroke="black" d="M660.84,-543.08C670.97,-516.24 673.04,-483.88 672.67,-458.84"/>
<polygon fill="#931a1a" stroke="black" points="676.17,-458.49 672.38,-448.6 669.17,-458.69 676.17,-458.49"/>
</g>
<!-- rcmpy_state&#45;&gt;rcmpy_environment -->
<g id="edge16" class="edge">
<title>rcmpy_state&#45;&gt;rcmpy_environment</title><style>.edge>path:hover{stroke-width:8}</style>
<path fill="none" stroke="black" d="M608.09,-608.73C602.06,-606.67 595.77,-604.57 589.84,-602.71 539,-586.68 480.37,-570.26 439.24,-559.06"/>
<polygon fill="#931a1a" stroke="black" points="440,-555.64 429.43,-556.4 438.17,-562.4 440,-555.64"/>
</g>
<!-- rcmpy_xdg -->
<g id="node14" class="node">
<title>rcmpy_xdg</title><style>.edge>path:hover{stroke-width:8}</style>
<ellipse fill="#b83d3d" stroke="black" cx="777.84" cy="-773.96" rx="37.21" ry="18"/>
<text text-anchor="middle" x="777.84" y="-770.96" font-family="Helvetica,sans-Serif" font-size="10.00" fill="#ffffff">rcmpy.xdg</text>
</g>
<!-- rcmpy_xdg&#45;&gt;rcmpy_paths -->
<g id="edge17" class="edge">
<title>rcmpy_xdg&#45;&gt;rcmpy_paths</title><style>.edge>path:hover{stroke-width:8}</style>
<path fill="none" stroke="black" d="M777.84,-755.65C777.84,-746.8 777.84,-735.81 777.84,-725.83"/>
<polygon fill="#b83d3d" stroke="black" points="781.34,-725.55 777.84,-715.55 774.34,-725.55 781.34,-725.55"/>
</g>
<!-- vcorelib -->
<g id="node15" class="node">
<title>vcorelib</title><style>.edge>path:hover{stroke-width:8}</style>
<ellipse fill="#10f9f9" stroke="black" cx="744.84" cy="-896.07" rx="30.19" ry="18"/>
<text text-anchor="middle" x="744.84" y="-893.07" font-family="Helvetica,sans-Serif" font-size="10.00" fill="#000000">vcorelib</text>
</g>
<!-- vcorelib&#45;&gt;rcmpy_app -->
<g id="edge18" class="edge">
<title>vcorelib&#45;&gt;rcmpy_app</title><style>.edge>path:hover{stroke-width:8}</style>
<path fill="none" stroke="black" d="M777.84,-827.96C794.35,-797.57 822.87,-816.9 846.84,-791.96 871.36,-766.45 870.39,-753.77 880.84,-719.96 924.73,-578.03 938.18,-513.68 861.84,-386.23 847.89,-362.93 677.62,-261.02 669.84,-235"/>
</g>
<!-- vcorelib&#45;&gt;rcmpy_commands_all -->
<g id="edge19" class="edge">
<title>vcorelib&#45;&gt;rcmpy_commands_all</title><style>.edge>path:hover{stroke-width:8}</style>
<path fill="none" stroke="black" d="M859.84,-484.45C844.34,-442.78 870.21,-419.61 840.84,-386.23 807.14,-347.92 779.11,-369.41 731.84,-350.23 726.71,-348.14 721.41,-345.83 716.17,-343.44"/>
<polygon fill="#10f9f9" stroke="black" points="717.39,-340.15 706.85,-339.08 714.43,-346.49 717.39,-340.15"/>
</g>
<!-- vcorelib&#45;&gt;rcmpy_commands_apply -->
<g id="edge20" class="edge">
<title>vcorelib&#45;&gt;rcmpy_commands_apply</title><style>.edge>path:hover{stroke-width:8}</style>
<path fill="none" stroke="black" d="M464.84,-619.71C448.7,-594.61 447.41,-509.66 464.84,-485.45"/>
</g>
<!-- vcorelib&#45;&gt;rcmpy_commands_use -->
<g id="edge21" class="edge">
<title>vcorelib&#45;&gt;rcmpy_commands_use</title><style>.edge>path:hover{stroke-width:8}</style>
<path fill="none" stroke="black" d="M777.84,-827.96C790.61,-805.36 811.13,-814.59 823.84,-791.96 891.02,-672.38 893.45,-618.43 859.84,-485.45"/>
<path fill="none" stroke="black" d="M859.84,-484.45C853.83,-468.3 841.19,-454.78 827.91,-444.27"/>
<polygon fill="#10f9f9" stroke="black" points="829.72,-441.26 819.61,-438.12 825.55,-446.89 829.72,-441.26"/>
</g>
<!-- vcorelib&#45;&gt;rcmpy_commands_variant -->
<g id="edge22" class="edge">
<title>vcorelib&#45;&gt;rcmpy_commands_variant</title><style>.edge>path:hover{stroke-width:8}</style>
<path fill="none" stroke="black" d="M707.84,-696.33C684.96,-604.46 701.9,-577.75 685.84,-484.45 684.36,-475.83 682.39,-466.67 680.35,-458"/>
<polygon fill="#10f9f9" stroke="black" points="683.71,-457 677.94,-448.11 676.91,-458.65 683.71,-457"/>
</g>
<!-- vcorelib&#45;&gt;rcmpy_config -->
<g id="edge23" class="edge">
<title>vcorelib&#45;&gt;rcmpy_config</title><style>.edge>path:hover{stroke-width:8}</style>
<path fill="none" stroke="black" d="M636.84,-827.96C541.72,-761.09 430.02,-680.49 378.1,-642.92"/>
<polygon fill="#10f9f9" stroke="black" points="379.86,-639.87 369.71,-636.84 375.76,-645.54 379.86,-639.87"/>
</g>
<!-- vcorelib&#45;&gt;rcmpy_environment -->
<g id="edge24" class="edge">
<title>vcorelib&#45;&gt;rcmpy_environment</title><style>.edge>path:hover{stroke-width:8}</style>
<path fill="none" stroke="black" d="M636.84,-827.96C624.62,-819.39 474.8,-632.81 464.84,-621.71"/>
<path fill="none" stroke="black" d="M464.84,-619.71C452.84,-601.05 435.26,-583.69 419.83,-570.42"/>
<polygon fill="#10f9f9" stroke="black" points="421.91,-567.6 411.99,-563.86 417.42,-572.97 421.91,-567.6"/>
</g>
<!-- vcorelib&#45;&gt;rcmpy_paths -->
<g id="edge25" class="edge">
<title>vcorelib&#45;&gt;rcmpy_paths</title><style>.edge>path:hover{stroke-width:8}</style>
<path fill="none" stroke="black" d="M712.84,-772.96C707.13,-750.58 725.33,-731.13 743.92,-717.7"/>
<polygon fill="#10f9f9" stroke="black" points="746.07,-720.47 752.39,-711.97 742.15,-714.67 746.07,-720.47"/>
</g>
<!-- vcorelib&#45;&gt;rcmpy_schemas -->
<g id="edge26" class="edge">
<title>vcorelib&#45;&gt;rcmpy_schemas</title><style>.edge>path:hover{stroke-width:8}</style>
<path fill="none" stroke="black" d="M723.81,-882.9C701.81,-870 666.42,-848.8 636.84,-828.96"/>
<path fill="none" stroke="black" d="M636.84,-827.96C601.06,-803.97 586.62,-808.5 546.84,-791.96 484.85,-766.19 413.45,-735.12 370,-716.04"/>
<polygon fill="#10f9f9" stroke="black" points="371.2,-712.75 360.63,-711.93 368.38,-719.16 371.2,-712.75"/>
</g>
<!-- vcorelib&#45;&gt;rcmpy_state -->
<g id="edge27" class="edge">
<title>vcorelib&#45;&gt;rcmpy_state</title><style>.edge>path:hover{stroke-width:8}</style>
<path fill="none" stroke="black" d="M752.52,-878.53C758.93,-865.01 768.5,-845.49 777.84,-828.96"/>
<path fill="none" stroke="black" d="M777.84,-827.96C796.17,-795.5 722.06,-811.08 712.84,-774.96"/>
<path fill="none" stroke="black" d="M712.84,-772.96C704.62,-740.75 715.87,-730.59 707.84,-698.33"/>
<path fill="none" stroke="black" d="M707.84,-696.33C702.36,-674.32 684.97,-655.59 669.03,-642.4"/>
<polygon fill="#10f9f9" stroke="black" points="670.92,-639.44 660.89,-636.02 666.6,-644.95 670.92,-639.44"/>
</g>
<!-- vcorelib&#45;&gt;rcmpy_xdg -->
<g id="edge28" class="edge">
<title>vcorelib&#45;&gt;rcmpy_xdg</title><style>.edge>path:hover{stroke-width:8}</style>
<path fill="none" stroke="black" d="M777.84,-827.96C782.15,-820.33 783.25,-811.04 782.94,-802.38"/>
<polygon fill="#10f9f9" stroke="black" points="786.41,-801.9 781.97,-792.28 779.44,-802.57 786.41,-801.9"/>
</g>
<!-- vcorelib_args -->
<g id="node16" class="node">
<title>vcorelib_args</title><style>.edge>path:hover{stroke-width:8}</style>
<ellipse fill="#22e7e7" stroke="black" cx="536.84" cy="-620.71" rx="43.92" ry="18"/>
<text text-anchor="middle" x="536.84" y="-617.71" font-family="Helvetica,sans-Serif" font-size="10.00" fill="#000000">vcorelib.args</text>
</g>
<!-- vcorelib_args&#45;&gt;rcmpy_app -->
<g id="edge29" class="edge">
<title>vcorelib_args&#45;&gt;rcmpy_app</title><style>.edge>path:hover{stroke-width:8}</style>
<path fill="none" stroke="black" d="M593.84,-484.45C591.38,-455.17 588.45,-447.22 593.84,-418.34"/>
<path fill="none" stroke="black" d="M593.84,-416.34C604.42,-359.66 585.99,-339.03 612.84,-288 628.95,-257.39 679.04,-268.35 669.84,-235"/>
<path fill="none" stroke="black" d="M669.84,-233C664.92,-216.57 655.14,-200.13 646.14,-187.31"/>
<polygon fill="#22e7e7" stroke="black" points="648.84,-185.07 640.11,-179.07 643.19,-189.2 648.84,-185.07"/>
</g>
<!-- vcorelib_args&#45;&gt;rcmpy_commands_all -->
<g id="edge30" class="edge">
<title>vcorelib_args&#45;&gt;rcmpy_commands_all</title><style>.edge>path:hover{stroke-width:8}</style>
<path fill="none" stroke="black" d="M593.84,-416.34C598.59,-390.89 615.98,-367.9 632.93,-350.78"/>
<polygon fill="#22e7e7" stroke="black" points="635.38,-353.28 640.13,-343.81 630.51,-348.25 635.38,-353.28"/>
</g>
<!-- vcorelib_args&#45;&gt;rcmpy_commands_apply -->
<g id="edge31" class="edge">
<title>vcorelib_args&#45;&gt;rcmpy_commands_apply</title><style>.edge>path:hover{stroke-width:8}</style>
<path fill="none" stroke="black" d="M553.56,-604C568.15,-589.66 589.23,-567.36 603.84,-545.08"/>
<path fill="none" stroke="black" d="M603.84,-543.08C618.09,-521.34 596.02,-511.35 593.84,-485.45"/>
<path fill="none" stroke="black" d="M593.84,-484.45C592.34,-466.53 579.78,-452.34 565.29,-441.78"/>
<polygon fill="#22e7e7" stroke="black" points="566.87,-438.62 556.61,-435.97 562.98,-444.44 566.87,-438.62"/>
</g>
<!-- vcorelib_args&#45;&gt;rcmpy_commands_use -->
<g id="edge32" class="edge">
<title>vcorelib_args&#45;&gt;rcmpy_commands_use</title><style>.edge>path:hover{stroke-width:8}</style>
<path fill="none" stroke="black" d="M603.84,-543.08C621.17,-516.64 691.93,-471.92 739.4,-443.82"/>
<polygon fill="#22e7e7" stroke="black" points="741.42,-446.69 748.27,-438.6 737.87,-440.66 741.42,-446.69"/>
</g>
<!-- vcorelib_args&#45;&gt;rcmpy_commands_variant -->
<g id="edge33" class="edge">
<title>vcorelib_args&#45;&gt;rcmpy_commands_variant</title><style>.edge>path:hover{stroke-width:8}</style>
<path fill="none" stroke="black" d="M593.84,-484.45C592.27,-465.78 605.33,-451.15 621.05,-440.46"/>
<polygon fill="#22e7e7" stroke="black" points="623.33,-443.17 629.98,-434.92 619.64,-437.22 623.33,-443.17"/>
</g>
<!-- vcorelib_dict -->
<g id="node17" class="node">
<title>vcorelib_dict</title><style>.edge>path:hover{stroke-width:8}</style>
<ellipse fill="#16f3f3" stroke="black" cx="363.84" cy="-1458.86" rx="41.24" ry="18"/>
<text text-anchor="middle" x="363.84" y="-1455.86" font-family="Helvetica,sans-Serif" font-size="10.00" fill="#000000">vcorelib.dict</text>
</g>
<!-- vcorelib_dict&#45;&gt;rcmpy_config -->
<g id="edge34" class="edge">
<title>vcorelib_dict&#45;&gt;rcmpy_config</title><style>.edge>path:hover{stroke-width:8}</style>
<path fill="none" stroke="black" d="M335.56,-1445.53C282.89,-1420.84 170.77,-1359.9 122.84,-1269.64 57.71,-1146.97 56.84,-1103.07 56.84,-964.19 56.84,-964.19 56.84,-964.19 56.84,-895.07 56.84,-772.58 207.48,-813.26 249.84,-698.33"/>
<path fill="none" stroke="black" d="M249.84,-696.33C262.75,-670.85 288.89,-651.74 311.06,-639.23"/>
<polygon fill="#16f3f3" stroke="black" points="312.81,-642.26 319.95,-634.44 309.49,-636.1 312.81,-642.26"/>
</g>
<!-- vcorelib_dict&#45;&gt;rcmpy_paths -->
<g id="edge35" class="edge">
<title>vcorelib_dict&#45;&gt;rcmpy_paths</title><style>.edge>path:hover{stroke-width:8}</style>
<path fill="none" stroke="black" d="M750.84,-1335.75C749.04,-1091.9 807.58,-1035.27 823.84,-791.96 824.91,-776 829.13,-771.06 823.84,-755.96 819.41,-743.31 810.91,-731.37 802.41,-721.68"/>
<polygon fill="#16f3f3" stroke="black" points="804.73,-719.03 795.36,-714.09 799.61,-723.8 804.73,-719.03"/>
</g>
<!-- vcorelib_dict&#45;&gt;rcmpy_schemas -->
<g id="edge36" class="edge">
<title>vcorelib_dict&#45;&gt;rcmpy_schemas</title><style>.edge>path:hover{stroke-width:8}</style>
<path fill="none" stroke="black" d="M404.93,-1456.7C488.16,-1453.57 672.88,-1442.46 721.84,-1404.86 747.61,-1385.07 757.61,-1369.53 750.84,-1337.75"/>
<path fill="none" stroke="black" d="M750.84,-1335.75C750.71,-1318.64 738.18,-1318.45 726.84,-1305.64 704.97,-1280.92 695.3,-1278.53 674.84,-1252.64"/>
<path fill="none" stroke="black" d="M674.84,-1250.64C627.47,-1190.71 484.84,-1040.57 484.84,-964.19 484.84,-964.19 484.84,-964.19 484.84,-895.07 484.84,-830.44 445.6,-823.43 402.84,-774.96"/>
</g>
<!-- vcorelib_dict&#45;&gt;rcmpy_state -->
<g id="edge37" class="edge">
<title>vcorelib_dict&#45;&gt;rcmpy_state</title><style>.edge>path:hover{stroke-width:8}</style>
<path fill="none" stroke="black" d="M674.84,-1250.64C646.47,-1205.41 674.84,-1183.91 674.84,-1130.52 674.84,-1130.52 674.84,-1130.52 674.84,-895.07 674.84,-841.69 665.45,-827.51 674.84,-774.96"/>
</g>
<!-- vcorelib_io -->
<g id="node20" class="node">
<title>vcorelib_io</title><style>.edge>path:hover{stroke-width:8}</style>
<ellipse fill="#05d1d1" stroke="black" cx="275.84" cy="-1251.64" rx="36.89" ry="18"/>
<text text-anchor="middle" x="275.84" y="-1248.64" font-family="Helvetica,sans-Serif" font-size="10.00" fill="#000000">vcorelib.io</text>
</g>
<!-- vcorelib_dict&#45;&gt;vcorelib_io -->
<g id="edge38" class="edge">
<title>vcorelib_dict&#45;&gt;vcorelib_io</title><style>.edge>path:hover{stroke-width:8}</style>
<path fill="none" stroke="black" d="M329.84,-1403.86C315.6,-1378.16 327.86,-1367.07 329.84,-1337.75"/>
</g>
<!-- vcorelib_io_types -->
<g id="node21" class="node">
<title>vcorelib_io_types</title><style>.edge>path:hover{stroke-width:8}</style>
<ellipse fill="#05e5e5" stroke="black" cx="263.84" cy="-1336.75" rx="37.79" ry="31.23"/>
<text text-anchor="middle" x="263.84" y="-1345.75" font-family="Helvetica,sans-Serif" font-size="10.00" fill="#000000">vcorelib.</text>
<text text-anchor="middle" x="263.84" y="-1333.75" font-family="Helvetica,sans-Serif" font-size="10.00" fill="#000000">io.</text>
<text text-anchor="middle" x="263.84" y="-1321.75" font-family="Helvetica,sans-Serif" font-size="10.00" fill="#000000">types</text>
</g>
<!-- vcorelib_dict&#45;&gt;vcorelib_io_types -->
<g id="edge39" class="edge">
<title>vcorelib_dict&#45;&gt;vcorelib_io_types</title><style>.edge>path:hover{stroke-width:8}</style>
<path fill="none" stroke="black" d="M352.56,-1441.49C345.65,-1431.18 336.83,-1417.48 329.84,-1404.86"/>
<path fill="none" stroke="black" d="M329.84,-1403.86C321.91,-1389.55 309.98,-1376.25 298.43,-1365.38"/>
<polygon fill="#16f3f3" stroke="black" points="300.71,-1362.72 290.94,-1358.61 296.01,-1367.92 300.71,-1362.72"/>
</g>
<!-- vcorelib_dict_cache -->
<g id="node18" class="node">
<title>vcorelib_dict_cache</title><style>.edge>path:hover{stroke-width:8}</style>
<ellipse fill="#439d9d" stroke="black" cx="456.84" cy="-1129.52" rx="37.79" ry="31.23"/>
<text text-anchor="middle" x="456.84" y="-1138.52" font-family="Helvetica,sans-Serif" font-size="10.00" fill="#000000">vcorelib.</text>
<text text-anchor="middle" x="456.84" y="-1126.52" font-family="Helvetica,sans-Serif" font-size="10.00" fill="#000000">dict.</text>
<text text-anchor="middle" x="456.84" y="-1114.52" font-family="Helvetica,sans-Serif" font-size="10.00" fill="#000000">cache</text>
</g>
<!-- vcorelib_dict_cache&#45;&gt;rcmpy_state -->
<g id="edge40" class="edge">
<title>vcorelib_dict_cache&#45;&gt;rcmpy_state</title><style>.edge>path:hover{stroke-width:8}</style>
<path fill="none" stroke="black" d="M474.87,-1101.93C494.42,-1070.47 522.84,-1015.84 522.84,-964.19 522.84,-964.19 522.84,-964.19 522.84,-827.96 522.84,-770.35 484.69,-741.51 522.84,-698.33"/>
</g>
<!-- vcorelib_dict_codec -->
<g id="node19" class="node">
<title>vcorelib_dict_codec</title><style>.edge>path:hover{stroke-width:8}</style>
<ellipse fill="#339999" stroke="black" cx="310.84" cy="-896.07" rx="37.79" ry="31.23"/>
<text text-anchor="middle" x="310.84" y="-905.07" font-family="Helvetica,sans-Serif" font-size="10.00" fill="#ffffff">vcorelib.</text>
<text text-anchor="middle" x="310.84" y="-893.07" font-family="Helvetica,sans-Serif" font-size="10.00" fill="#ffffff">dict.</text>
<text text-anchor="middle" x="310.84" y="-881.07" font-family="Helvetica,sans-Serif" font-size="10.00" fill="#ffffff">codec</text>
</g>
<!-- vcorelib_dict_codec&#45;&gt;rcmpy_config -->
<g id="edge41" class="edge">
<title>vcorelib_dict_codec&#45;&gt;rcmpy_config</title><style>.edge>path:hover{stroke-width:8}</style>
<path fill="none" stroke="black" d="M317.36,-865.22C321.68,-840.77 325.58,-805.37 319.84,-774.96"/>
<path fill="none" stroke="black" d="M319.84,-772.96C310.59,-728.44 234.11,-741 249.84,-698.33"/>
</g>
<!-- vcorelib_dict_codec&#45;&gt;rcmpy_schemas -->
<g id="edge42" class="edge">
<title>vcorelib_dict_codec&#45;&gt;rcmpy_schemas</title><style>.edge>path:hover{stroke-width:8}</style>
<path fill="none" stroke="black" d="M319.84,-772.96C316.88,-757.3 319.01,-739.63 322.05,-725.41"/>
<polygon fill="#339999" stroke="black" points="325.55,-725.85 324.48,-715.31 318.74,-724.21 325.55,-725.85"/>
</g>
<!-- vcorelib_io&#45;&gt;rcmpy_environment -->
<g id="edge43" class="edge">
<title>vcorelib_io&#45;&gt;rcmpy_environment</title><style>.edge>path:hover{stroke-width:8}</style>
<path fill="none" stroke="black" d="M259.18,-1235.26C241.41,-1218.24 213.2,-1189.39 193.84,-1160.64 158.57,-1108.25 153.84,-1091.86 132.84,-1032.3"/>
<path fill="none" stroke="black" d="M132.84,-1030.3C108.26,-962.44 91.93,-784.21 94.84,-774.96"/>
</g>
<!-- vcorelib_io&#45;&gt;rcmpy_state -->
<g id="edge44" class="edge">
<title>vcorelib_io&#45;&gt;rcmpy_state</title><style>.edge>path:hover{stroke-width:8}</style>
<path fill="none" stroke="black" d="M314.84,-1196.64C339.77,-1122.75 394.24,-1132.78 427.84,-1062.41 447,-1022.28 446.84,-1008.65 446.84,-964.19 446.84,-964.19 446.84,-964.19 446.84,-827.96 446.84,-761.18 477.36,-747.23 522.84,-698.33"/>
<path fill="none" stroke="black" d="M522.84,-696.33C544.64,-671.4 576.75,-651.62 601.66,-638.71"/>
<polygon fill="#05d1d1" stroke="black" points="603.46,-641.72 610.82,-634.1 600.32,-635.47 603.46,-641.72"/>
</g>
<!-- vcorelib_io&#45;&gt;vcorelib_dict_cache -->
<g id="edge45" class="edge">
<title>vcorelib_io&#45;&gt;vcorelib_dict_cache</title><style>.edge>path:hover{stroke-width:8}</style>
<path fill="none" stroke="black" d="M307.97,-1242.86C333.44,-1235.2 368.36,-1221.16 390.84,-1197.64"/>
<path fill="none" stroke="black" d="M390.84,-1196.64C402.15,-1184.81 414.79,-1172.03 425.97,-1160.89"/>
<polygon fill="#05d1d1" stroke="black" points="428.44,-1163.37 433.07,-1153.84 423.51,-1158.4 428.44,-1163.37"/>
</g>
<!-- vcorelib_io&#45;&gt;vcorelib_dict_codec -->
<g id="edge46" class="edge">
<title>vcorelib_io&#45;&gt;vcorelib_dict_codec</title><style>.edge>path:hover{stroke-width:8}</style>
<path fill="none" stroke="black" d="M132.84,-1030.3C123.07,-1002.59 116.04,-988.29 132.84,-964.19"/>
</g>
<!-- vcorelib_schemas -->
<g id="node24" class="node">
<title>vcorelib_schemas</title><style>.edge>path:hover{stroke-width:8}</style>
<ellipse fill="#20b6b6" stroke="black" cx="238.84" cy="-1031.3" rx="39.72" ry="22.76"/>
<text text-anchor="middle" x="238.84" y="-1034.3" font-family="Helvetica,sans-Serif" font-size="10.00" fill="#000000">vcorelib.</text>
<text text-anchor="middle" x="238.84" y="-1022.3" font-family="Helvetica,sans-Serif" font-size="10.00" fill="#000000">schemas</text>
</g>
<!-- vcorelib_io&#45;&gt;vcorelib_schemas -->
<g id="edge47" class="edge">
<title>vcorelib_io&#45;&gt;vcorelib_schemas</title><style>.edge>path:hover{stroke-width:8}</style>
<path fill="none" stroke="black" d="M314.84,-1196.64C324.23,-1168.79 315.89,-1159.89 314.84,-1130.52"/>
<path fill="none" stroke="black" d="M314.84,-1128.52C313.79,-1099.04 291.6,-1073.27 271.47,-1055.84"/>
<polygon fill="#05d1d1" stroke="black" points="273.55,-1053.03 263.61,-1049.35 269.09,-1058.42 273.55,-1053.03"/>
</g>
<!-- vcorelib_schemas_base -->
<g id="node25" class="node">
<title>vcorelib_schemas_base</title><style>.edge>path:hover{stroke-width:8}</style>
<ellipse fill="#21bfbf" stroke="black" cx="244.84" cy="-1129.52" rx="41.65" ry="31.23"/>
<text text-anchor="middle" x="244.84" y="-1138.52" font-family="Helvetica,sans-Serif" font-size="10.00" fill="#000000">vcorelib.</text>
<text text-anchor="middle" x="244.84" y="-1126.52" font-family="Helvetica,sans-Serif" font-size="10.00" fill="#000000">schemas.</text>
<text text-anchor="middle" x="244.84" y="-1114.52" font-family="Helvetica,sans-Serif" font-size="10.00" fill="#000000">base</text>
</g>
<!-- vcorelib_io&#45;&gt;vcorelib_schemas_base -->
<g id="edge48" class="edge">
<title>vcorelib_io&#45;&gt;vcorelib_schemas_base</title><style>.edge>path:hover{stroke-width:8}</style>
<path fill="none" stroke="black" d="M291.43,-1234.98C300.11,-1225.16 310.09,-1211.71 314.84,-1197.64"/>
<path fill="none" stroke="black" d="M314.84,-1196.64C318.18,-1186.75 301.6,-1170.77 283.75,-1157.01"/>
<polygon fill="#05d1d1" stroke="black" points="285.63,-1154.04 275.52,-1150.87 281.44,-1159.65 285.63,-1154.04"/>
</g>
<!-- vcorelib_schemas_json -->
<g id="node26" class="node">
<title>vcorelib_schemas_json</title><style>.edge>path:hover{stroke-width:8}</style>
<ellipse fill="#3d8f8f" stroke="black" cx="376.84" cy="-1031.3" rx="41.65" ry="31.23"/>
<text text-anchor="middle" x="376.84" y="-1040.3" font-family="Helvetica,sans-Serif" font-size="10.00" fill="#ffffff">vcorelib.</text>
<text text-anchor="middle" x="376.84" y="-1028.3" font-family="Helvetica,sans-Serif" font-size="10.00" fill="#ffffff">schemas.</text>
<text text-anchor="middle" x="376.84" y="-1016.3" font-family="Helvetica,sans-Serif" font-size="10.00" fill="#ffffff">json</text>
</g>
<!-- vcorelib_io&#45;&gt;vcorelib_schemas_json -->
<g id="edge49" class="edge">
<title>vcorelib_io&#45;&gt;vcorelib_schemas_json</title><style>.edge>path:hover{stroke-width:8}</style>
<path fill="none" stroke="black" d="M314.84,-1128.52C313.97,-1104.07 328.28,-1080.87 343.37,-1063.39"/>
<polygon fill="#05d1d1" stroke="black" points="346.16,-1065.52 350.31,-1055.77 340.99,-1060.81 346.16,-1065.52"/>
</g>
<!-- vcorelib_io_types&#45;&gt;rcmpy_environment -->
<g id="edge50" class="edge">
<title>vcorelib_io_types&#45;&gt;rcmpy_environment</title><style>.edge>path:hover{stroke-width:8}</style>
<path fill="none" stroke="black" d="M231.2,-1320.92C203.09,-1306.77 163.04,-1283.1 136.84,-1252.64"/>
<path fill="none" stroke="black" d="M136.84,-1250.64C100.41,-1208.27 49.09,-1246.96 22.84,-1197.64"/>
</g>
<!-- vcorelib_io_types&#45;&gt;rcmpy_state -->
<g id="edge51" class="edge">
<title>vcorelib_io_types&#45;&gt;rcmpy_state</title><style>.edge>path:hover{stroke-width:8}</style>
<path fill="none" stroke="black" d="M297.12,-1321.36C350,-1296.68 452.45,-1241.03 503.84,-1160.64 585.8,-1032.42 530.24,-970 584.84,-827.96 608.33,-766.84 654.03,-763.8 654.84,-698.33"/>
<path fill="none" stroke="black" d="M654.84,-696.33C653.97,-680.31 650.34,-662.74 646.76,-648.68"/>
<polygon fill="#05e5e5" stroke="black" points="650.05,-647.44 644.08,-638.69 643.29,-649.26 650.05,-647.44"/>
</g>
<!-- vcorelib_io_types&#45;&gt;vcorelib_dict_cache -->
<g id="edge52" class="edge">
<title>vcorelib_io_types&#45;&gt;vcorelib_dict_cache</title><style>.edge>path:hover{stroke-width:8}</style>
<path fill="none" stroke="black" d="M352.84,-1250.64C368.52,-1226.26 370.81,-1218.59 390.84,-1197.64"/>
</g>
<!-- vcorelib_io_types&#45;&gt;vcorelib_dict_codec -->
<g id="edge53" class="edge">
<title>vcorelib_io_types&#45;&gt;vcorelib_dict_codec</title><style>.edge>path:hover{stroke-width:8}</style>
<path fill="none" stroke="black" d="M136.84,-1250.64C103.63,-1208.84 128.96,-1183.32 136.84,-1130.52"/>
<path fill="none" stroke="black" d="M136.84,-1128.52C148.72,-1083.4 83.94,-1077.67 94.84,-1032.3"/>
</g>
<!-- vcorelib_io_types&#45;&gt;vcorelib_io -->
<g id="edge54" class="edge">
<title>vcorelib_io_types&#45;&gt;vcorelib_io</title><style>.edge>path:hover{stroke-width:8}</style>
<path fill="none" stroke="black" d="M268.17,-1305.74C269.4,-1297.24 270.73,-1288.04 271.93,-1279.73"/>
<polygon fill="#05e5e5" stroke="black" points="275.4,-1280.18 273.36,-1269.78 268.47,-1279.18 275.4,-1280.18"/>
</g>
<!-- vcorelib_io_types&#45;&gt;vcorelib_schemas -->
<g id="edge55" class="edge">
<title>vcorelib_io_types&#45;&gt;vcorelib_schemas</title><style>.edge>path:hover{stroke-width:8}</style>
<path fill="none" stroke="black" d="M136.84,-1128.52C142.02,-1093.8 173.73,-1067.67 200.44,-1051.46"/>
<polygon fill="#05e5e5" stroke="black" points="202.36,-1054.39 209.26,-1046.35 198.85,-1048.34 202.36,-1054.39"/>
</g>
<!-- vcorelib_io_types&#45;&gt;vcorelib_schemas_base -->
<g id="edge56" class="edge">
<title>vcorelib_io_types&#45;&gt;vcorelib_schemas_base</title><style>.edge>path:hover{stroke-width:8}</style>
<path fill="none" stroke="black" d="M136.84,-1250.64C121.3,-1221.52 166.7,-1222.1 188.84,-1197.64 198.33,-1187.15 208.34,-1175.4 217.23,-1164.69"/>
<polygon fill="#05e5e5" stroke="black" points="220.11,-1166.69 223.78,-1156.75 214.71,-1162.24 220.11,-1166.69"/>
</g>
<!-- vcorelib_io_types&#45;&gt;vcorelib_schemas_json -->
<g id="edge57" class="edge">
<title>vcorelib_io_types&#45;&gt;vcorelib_schemas_json</title><style>.edge>path:hover{stroke-width:8}</style>
<path fill="none" stroke="black" d="M291.82,-1315.68C311.35,-1300.37 336.71,-1277.71 352.84,-1252.64"/>
<path fill="none" stroke="black" d="M352.84,-1250.64C387.55,-1196.67 387,-1119.31 382.55,-1072.63"/>
<polygon fill="#05e5e5" stroke="black" points="386.02,-1072.17 381.48,-1062.59 379.06,-1072.9 386.02,-1072.17"/>
</g>
<!-- vcorelib_logging -->
<g id="node22" class="node">
<title>vcorelib_logging</title><style>.edge>path:hover{stroke-width:8}</style>
<ellipse fill="#4cb3b3" stroke="black" cx="160.84" cy="-697.33" rx="37.79" ry="22.76"/>
<text text-anchor="middle" x="160.84" y="-700.33" font-family="Helvetica,sans-Serif" font-size="10.00" fill="#000000">vcorelib.</text>
<text text-anchor="middle" x="160.84" y="-688.33" font-family="Helvetica,sans-Serif" font-size="10.00" fill="#000000">logging</text>
</g>
<!-- vcorelib_logging&#45;&gt;rcmpy_environment -->
<g id="edge58" class="edge">
<title>vcorelib_logging&#45;&gt;rcmpy_environment</title><style>.edge>path:hover{stroke-width:8}</style>
<path fill="none" stroke="black" d="M142.28,-677.62C128.82,-661.73 115.04,-638.84 127.84,-621.71"/>
</g>
<!-- vcorelib_paths -->
<g id="node23" class="node">
<title>vcorelib_paths</title><style>.edge>path:hover{stroke-width:8}</style>
<ellipse fill="#06f9f9" stroke="black" cx="257.84" cy="-1458.86" rx="46.95" ry="18"/>
<text text-anchor="middle" x="257.84" y="-1455.86" font-family="Helvetica,sans-Serif" font-size="10.00" fill="#000000">vcorelib.paths</text>
</g>
<!-- vcorelib_paths&#45;&gt;rcmpy_environment -->
<g id="edge59" class="edge">
<title>vcorelib_paths&#45;&gt;rcmpy_environment</title><style>.edge>path:hover{stroke-width:8}</style>
<path fill="none" stroke="black" d="M240.08,-1442.16C230.66,-1432.51 220.16,-1419.26 215.84,-1404.86"/>
<path fill="none" stroke="black" d="M215.84,-1403.86C205.45,-1369.21 170.39,-1391.31 142.84,-1367.86 94.98,-1327.12 60.34,-1315.49 60.84,-1252.64"/>
<path fill="none" stroke="black" d="M60.84,-1250.64C55.03,-1222.24 36.46,-1223.22 22.84,-1197.64"/>
<path fill="none" stroke="black" d="M22.84,-1196.64C-25.71,-1105.43 18.84,-1067.51 18.84,-964.19 18.84,-964.19 18.84,-964.19 18.84,-895.07 18.84,-831.9 76.47,-835.4 94.84,-774.96"/>
<path fill="none" stroke="black" d="M94.84,-772.96C105.49,-704.98 86.66,-676.83 127.84,-621.71"/>
<path fill="none" stroke="black" d="M127.84,-619.71C151.31,-586.97 260.35,-564.51 329.25,-553.31"/>
<polygon fill="#06f9f9" stroke="black" points="330.2,-556.71 339.53,-551.68 329.1,-549.79 330.2,-556.71"/>
</g>
<!-- vcorelib_paths&#45;&gt;rcmpy_state -->
<g id="edge60" class="edge">
<title>vcorelib_paths&#45;&gt;rcmpy_state</title><style>.edge>path:hover{stroke-width:8}</style>
<path fill="none" stroke="black" d="M636.84,-1250.64C584.21,-1172.78 587.29,-914.96 622.84,-827.96 635.32,-797.41 668.64,-807.37 674.84,-774.96"/>
<path fill="none" stroke="black" d="M674.84,-772.96C678.72,-738.84 656.7,-732.62 654.84,-698.33"/>
</g>
<!-- vcorelib_paths&#45;&gt;rcmpy_xdg -->
<g id="edge61" class="edge">
<title>vcorelib_paths&#45;&gt;rcmpy_xdg</title><style>.edge>path:hover{stroke-width:8}</style>
<path fill="none" stroke="black" d="M712.84,-1335.75C681.11,-1154.2 760.56,-1110.01 783.84,-927.19 789.43,-883.3 797.54,-871.84 791.84,-827.96 790.71,-819.24 788.57,-809.91 786.3,-801.54"/>
<polygon fill="#06f9f9" stroke="black" points="789.66,-800.56 783.52,-791.92 782.93,-802.5 789.66,-800.56"/>
</g>
<!-- vcorelib_paths&#45;&gt;vcorelib_dict_cache -->
<g id="edge62" class="edge">
<title>vcorelib_paths&#45;&gt;vcorelib_dict_cache</title><style>.edge>path:hover{stroke-width:8}</style>
<path fill="none" stroke="black" d="M275.04,-1441.83C297.33,-1420.74 334.46,-1384.4 343.84,-1367.86 353.52,-1350.8 377.28,-1211.82 390.84,-1197.64"/>
</g>
<!-- vcorelib_paths&#45;&gt;vcorelib_dict_codec -->
<g id="edge63" class="edge">
<title>vcorelib_paths&#45;&gt;vcorelib_dict_codec</title><style>.edge>path:hover{stroke-width:8}</style>
<path fill="none" stroke="black" d="M60.84,-1250.64C61.03,-1152.43 71.91,-1127.79 94.84,-1032.3"/>
<path fill="none" stroke="black" d="M94.84,-1030.3C101.75,-997.12 113.46,-991.99 132.84,-964.19"/>
<path fill="none" stroke="black" d="M132.84,-963.19C162.01,-921.34 220.95,-905.93 263.02,-900.28"/>
<polygon fill="#06f9f9" stroke="black" points="263.54,-903.74 273.05,-899.07 262.71,-896.79 263.54,-903.74"/>
</g>
<!-- vcorelib_paths&#45;&gt;vcorelib_io -->
<g id="edge64" class="edge">
<title>vcorelib_paths&#45;&gt;vcorelib_io</title><style>.edge>path:hover{stroke-width:8}</style>
<path fill="none" stroke="black" d="M215.84,-1403.86C202.87,-1360.61 275.88,-1396.43 310.84,-1367.86 323.09,-1357.85 328.77,-1353.54 329.84,-1337.75"/>
<path fill="none" stroke="black" d="M329.84,-1335.75C331.43,-1312.29 315.94,-1290.2 301.15,-1274.69"/>
<polygon fill="#06f9f9" stroke="black" points="303.59,-1272.18 294.02,-1267.63 298.66,-1277.16 303.59,-1272.18"/>
</g>
<!-- vcorelib_paths&#45;&gt;vcorelib_io_types -->
<g id="edge65" class="edge">
<title>vcorelib_paths&#45;&gt;vcorelib_io_types</title><style>.edge>path:hover{stroke-width:8}</style>
<path fill="none" stroke="black" d="M215.84,-1403.86C211.6,-1389.73 218.73,-1376.17 228.69,-1365.05"/>
<polygon fill="#06f9f9" stroke="black" points="231.36,-1367.32 235.93,-1357.76 226.4,-1362.39 231.36,-1367.32"/>
</g>
<!-- vcorelib_paths&#45;&gt;vcorelib_schemas_base -->
<g id="edge66" class="edge">
<title>vcorelib_paths&#45;&gt;vcorelib_schemas_base</title><style>.edge>path:hover{stroke-width:8}</style>
<path fill="none" stroke="black" d="M60.84,-1250.64C66.42,-1218.28 147.71,-1175.12 200.36,-1150.32"/>
<polygon fill="#06f9f9" stroke="black" points="201.92,-1153.45 209.51,-1146.06 198.97,-1147.11 201.92,-1153.45"/>
</g>
<!-- vcorelib_paths&#45;&gt;vcorelib_schemas_json -->
<g id="edge67" class="edge">
<title>vcorelib_paths&#45;&gt;vcorelib_schemas_json</title><style>.edge>path:hover{stroke-width:8}</style>
<path fill="none" stroke="black" d="M293.02,-1446.94C299.91,-1444.87 307.09,-1442.76 313.84,-1440.86 490.18,-1391.34 751.01,-1516.89 712.84,-1337.75"/>
<path fill="none" stroke="black" d="M712.84,-1335.75C704.22,-1286.44 667.88,-1291.9 636.84,-1252.64"/>
<path fill="none" stroke="black" d="M636.84,-1250.64C601.76,-1206.26 583.07,-1204.08 546.84,-1160.64 525.31,-1134.82 529.05,-1120.65 503.84,-1098.41 480.21,-1077.56 448.83,-1061.14 423.17,-1049.88"/>
<polygon fill="#06f9f9" stroke="black" points="424.22,-1046.53 413.65,-1045.82 421.48,-1052.96 424.22,-1046.53"/>
</g>
<!-- vcorelib_schemas&#45;&gt;rcmpy_schemas -->
<g id="edge68" class="edge">
<title>vcorelib_schemas&#45;&gt;rcmpy_schemas</title><style>.edge>path:hover{stroke-width:8}</style>
<path fill="none" stroke="black" d="M338.84,-963.19C355.83,-933.86 367.23,-929.57 376.84,-897.07"/>
<path fill="none" stroke="black" d="M376.84,-895.07C392.33,-842.7 437.53,-817.15 402.84,-774.96"/>
<path fill="none" stroke="black" d="M402.84,-772.96C387.12,-755.14 368.34,-735.99 353.78,-721.55"/>
<polygon fill="#20b6b6" stroke="black" points="356.16,-718.99 346.58,-714.47 351.25,-723.98 356.16,-718.99"/>
</g>
<!-- vcorelib_schemas&#45;&gt;vcorelib_dict_codec -->
<g id="edge69" class="edge">
<title>vcorelib_schemas&#45;&gt;vcorelib_dict_codec</title><style>.edge>path:hover{stroke-width:8}</style>
<path fill="none" stroke="black" d="M265.37,-1014.46C293.5,-997.39 334.5,-971.68 338.84,-964.19"/>
<path fill="none" stroke="black" d="M338.84,-963.19C344.69,-953.09 342.52,-941.54 337.41,-930.95"/>
<polygon fill="#20b6b6" stroke="black" points="340.28,-928.91 332.29,-921.95 334.19,-932.37 340.28,-928.91"/>
</g>
<!-- vcorelib_schemas_base&#45;&gt;rcmpy_schemas -->
<g id="edge70" class="edge">
<title>vcorelib_schemas_base&#45;&gt;rcmpy_schemas</title><style>.edge>path:hover{stroke-width:8}</style>
<path fill="none" stroke="black" d="M262.8,-1101.3C270.58,-1089.41 279.74,-1075.27 287.84,-1062.41 305.12,-1035 303.7,-1023.85 325.84,-1000.19 344.8,-979.93 370.28,-991.14 376.84,-964.19"/>
<path fill="none" stroke="black" d="M376.84,-963.19C383.79,-934.64 366.38,-924.53 376.84,-897.07"/>
</g>
<!-- vcorelib_schemas_base&#45;&gt;vcorelib_dict_codec -->
<g id="edge71" class="edge">
<title>vcorelib_schemas_base&#45;&gt;vcorelib_dict_codec</title><style>.edge>path:hover{stroke-width:8}</style>
<path fill="none" stroke="black" d="M222.11,-1103.26C211.77,-1091.26 199.67,-1076.49 189.84,-1062.41 182.61,-1052.07 125.67,-974.57 132.84,-964.19"/>
</g>
<!-- vcorelib_schemas_base&#45;&gt;vcorelib_schemas -->
<g id="edge72" class="edge">
<title>vcorelib_schemas_base&#45;&gt;vcorelib_schemas</title><style>.edge>path:hover{stroke-width:8}</style>
<path fill="none" stroke="black" d="M242.96,-1098.34C242.28,-1087.48 241.52,-1075.2 240.83,-1064.2"/>
<polygon fill="#21bfbf" stroke="black" points="244.32,-1063.89 240.2,-1054.13 237.33,-1064.33 244.32,-1063.89"/>
</g>
<!-- vcorelib_schemas_base&#45;&gt;vcorelib_schemas_json -->
<g id="edge73" class="edge">
<title>vcorelib_schemas_base&#45;&gt;vcorelib_schemas_json</title><style>.edge>path:hover{stroke-width:8}</style>
<path fill="none" stroke="black" d="M274.14,-1107.17C293.36,-1093.15 318.68,-1074.7 339.37,-1059.62"/>
<polygon fill="#21bfbf" stroke="black" points="341.61,-1062.31 347.63,-1053.59 337.48,-1056.66 341.61,-1062.31"/>
</g>
<!-- vcorelib_schemas_json&#45;&gt;rcmpy_schemas -->
<g id="edge74" class="edge">
<title>vcorelib_schemas_json&#45;&gt;rcmpy_schemas</title><style>.edge>path:hover{stroke-width:8}</style>
<path fill="none" stroke="black" d="M373.84,-999.99C373.5,-988.62 374.04,-975.67 376.84,-964.19"/>
</g>
</g>
</svg>
