<?xml version="1.0" encoding="UTF-8" standalone="no"?>
<!DOCTYPE svg PUBLIC "-//W3C//DTD SVG 1.1//EN"
 "http://www.w3.org/Graphics/SVG/1.1/DTD/svg11.dtd">
<!-- Generated by graphviz version 3.0.1~dev.20220405.0544 (20220405.0544)
 -->
<!-- Title: G Pages: 1 -->
<svg width="834pt" height="1394pt"
 viewBox="0.00 0.00 833.58 1394.35" xmlns="http://www.w3.org/2000/svg" xmlns:xlink="http://www.w3.org/1999/xlink">
<g id="graph0" class="graph" transform="scale(1 1) rotate(0) translate(4 1390.35)">
<title>G</title><style>.edge>path:hover{stroke-width:8}</style>
<polygon fill="white" stroke="transparent" points="-4,4 -4,-1390.35 829.58,-1390.35 829.58,4 -4,4"/>
<!-- rcmpy___main__ -->
<g id="node1" class="node">
<title>rcmpy___main__</title><style>.edge>path:hover{stroke-width:8}</style>
<ellipse fill="#ac4949" stroke="black" cx="730.29" cy="-18" rx="54.15" ry="18"/>
<text text-anchor="middle" x="730.29" y="-15" font-family="Helvetica,sans-Serif" font-size="10.00" fill="#ffffff">rcmpy.__main__</text>
</g>
<!-- rcmpy_app -->
<g id="node2" class="node">
<title>rcmpy_app</title><style>.edge>path:hover{stroke-width:8}</style>
<ellipse fill="#a13535" stroke="black" cx="730.29" cy="-162" rx="37.89" ry="18"/>
<text text-anchor="middle" x="730.29" y="-159" font-family="Helvetica,sans-Serif" font-size="10.00" fill="#ffffff">rcmpy.app</text>
</g>
<!-- rcmpy_entry -->
<g id="node9" class="node">
<title>rcmpy_entry</title><style>.edge>path:hover{stroke-width:8}</style>
<ellipse fill="#b83d3d" stroke="black" cx="730.29" cy="-90" rx="41.06" ry="18"/>
<text text-anchor="middle" x="730.29" y="-87" font-family="Helvetica,sans-Serif" font-size="10.00" fill="#ffffff">rcmpy.entry</text>
</g>
<!-- rcmpy_app&#45;&gt;rcmpy_entry -->
<g id="edge1" class="edge">
<title>rcmpy_app&#45;&gt;rcmpy_entry</title><style>.edge>path:hover{stroke-width:8}</style>
<path fill="none" stroke="black" d="M730.29,-143.7C730.29,-135.98 730.29,-126.71 730.29,-118.11"/>
<polygon fill="#a13535" stroke="black" points="733.79,-118.1 730.29,-108.1 726.79,-118.1 733.79,-118.1"/>
</g>
<!-- rcmpy_commands -->
<g id="node3" class="node">
<title>rcmpy_commands</title><style>.edge>path:hover{stroke-width:8}</style>
<ellipse fill="#ce3b3b" stroke="black" cx="688.29" cy="-234" rx="57.14" ry="18"/>
<text text-anchor="middle" x="688.29" y="-231" font-family="Helvetica,sans-Serif" font-size="10.00" fill="#ffffff">rcmpy.commands</text>
</g>
<!-- rcmpy_commands&#45;&gt;rcmpy_app -->
<g id="edge2" class="edge">
<title>rcmpy_commands&#45;&gt;rcmpy_app</title><style>.edge>path:hover{stroke-width:8}</style>
<path fill="none" stroke="black" d="M698.46,-216.05C703.41,-207.8 709.47,-197.7 714.97,-188.54"/>
<polygon fill="#ce3b3b" stroke="black" points="718.07,-190.16 720.22,-179.79 712.07,-186.56 718.07,-190.16"/>
</g>
<!-- rcmpy_commands_all -->
<g id="node4" class="node">
<title>rcmpy_commands_all</title><style>.edge>path:hover{stroke-width:8}</style>
<ellipse fill="#913030" stroke="black" cx="583.29" cy="-319.11" rx="47.72" ry="31.23"/>
<text text-anchor="middle" x="583.29" y="-328.11" font-family="Helvetica,sans-Serif" font-size="10.00" fill="#ffffff">rcmpy.</text>
<text text-anchor="middle" x="583.29" y="-316.11" font-family="Helvetica,sans-Serif" font-size="10.00" fill="#ffffff">commands.</text>
<text text-anchor="middle" x="583.29" y="-304.11" font-family="Helvetica,sans-Serif" font-size="10.00" fill="#ffffff">all</text>
</g>
<!-- rcmpy_commands_all&#45;&gt;rcmpy_app -->
<g id="edge3" class="edge">
<title>rcmpy_commands_all&#45;&gt;rcmpy_app</title><style>.edge>path:hover{stroke-width:8}</style>
<path fill="none" stroke="black" d="M631.04,-316.68C684.27,-312.11 764.14,-295.16 773.29,-235"/>
<path fill="none" stroke="black" d="M773.29,-233C775.96,-215.48 765.91,-198.49 754.86,-185.63"/>
<polygon fill="#913030" stroke="black" points="757.33,-183.14 747.96,-178.19 752.19,-187.9 757.33,-183.14"/>
</g>
<!-- rcmpy_commands_apply -->
<g id="node5" class="node">
<title>rcmpy_commands_apply</title><style>.edge>path:hover{stroke-width:8}</style>
<ellipse fill="#913030" stroke="black" cx="431.29" cy="-417.34" rx="47.72" ry="31.23"/>
<text text-anchor="middle" x="431.29" y="-426.34" font-family="Helvetica,sans-Serif" font-size="10.00" fill="#ffffff">rcmpy.</text>
<text text-anchor="middle" x="431.29" y="-414.34" font-family="Helvetica,sans-Serif" font-size="10.00" fill="#ffffff">commands.</text>
<text text-anchor="middle" x="431.29" y="-402.34" font-family="Helvetica,sans-Serif" font-size="10.00" fill="#ffffff">apply</text>
</g>
<!-- rcmpy_commands_apply&#45;&gt;rcmpy_commands_all -->
<g id="edge4" class="edge">
<title>rcmpy_commands_apply&#45;&gt;rcmpy_commands_all</title><style>.edge>path:hover{stroke-width:8}</style>
<path fill="none" stroke="black" d="M465.03,-394.98C487.46,-380.78 517.1,-362.02 541.09,-346.83"/>
<polygon fill="#913030" stroke="black" points="543.08,-349.71 549.65,-341.41 539.33,-343.8 543.08,-349.71"/>
</g>
<!-- rcmpy_commands_use -->
<g id="node6" class="node">
<title>rcmpy_commands_use</title><style>.edge>path:hover{stroke-width:8}</style>
<ellipse fill="#a13535" stroke="black" cx="697.29" cy="-417.34" rx="47.72" ry="31.23"/>
<text text-anchor="middle" x="697.29" y="-426.34" font-family="Helvetica,sans-Serif" font-size="10.00" fill="#ffffff">rcmpy.</text>
<text text-anchor="middle" x="697.29" y="-414.34" font-family="Helvetica,sans-Serif" font-size="10.00" fill="#ffffff">commands.</text>
<text text-anchor="middle" x="697.29" y="-402.34" font-family="Helvetica,sans-Serif" font-size="10.00" fill="#ffffff">use</text>
</g>
<!-- rcmpy_commands_use&#45;&gt;rcmpy_commands_all -->
<g id="edge5" class="edge">
<title>rcmpy_commands_use&#45;&gt;rcmpy_commands_all</title><style>.edge>path:hover{stroke-width:8}</style>
<path fill="none" stroke="black" d="M668.82,-392.3C653.99,-379.79 635.7,-364.35 619.84,-350.96"/>
<polygon fill="#a13535" stroke="black" points="621.7,-347.95 611.8,-344.17 617.18,-353.3 621.7,-347.95"/>
</g>
<!-- rcmpy_commands_variant -->
<g id="node7" class="node">
<title>rcmpy_commands_variant</title><style>.edge>path:hover{stroke-width:8}</style>
<ellipse fill="#a83838" stroke="black" cx="583.29" cy="-417.34" rx="47.72" ry="31.23"/>
<text text-anchor="middle" x="583.29" y="-426.34" font-family="Helvetica,sans-Serif" font-size="10.00" fill="#ffffff">rcmpy.</text>
<text text-anchor="middle" x="583.29" y="-414.34" font-family="Helvetica,sans-Serif" font-size="10.00" fill="#ffffff">commands.</text>
<text text-anchor="middle" x="583.29" y="-402.34" font-family="Helvetica,sans-Serif" font-size="10.00" fill="#ffffff">variant</text>
</g>
<!-- rcmpy_commands_variant&#45;&gt;rcmpy_commands_all -->
<g id="edge6" class="edge">
<title>rcmpy_commands_variant&#45;&gt;rcmpy_commands_all</title><style>.edge>path:hover{stroke-width:8}</style>
<path fill="none" stroke="black" d="M583.29,-386.16C583.29,-378.08 583.29,-369.23 583.29,-360.69"/>
<polygon fill="#a83838" stroke="black" points="586.79,-360.52 583.29,-350.52 579.79,-360.52 586.79,-360.52"/>
</g>
<!-- rcmpy_config -->
<g id="node8" class="node">
<title>rcmpy_config</title><style>.edge>path:hover{stroke-width:8}</style>
<ellipse fill="#a13535" stroke="black" cx="233.29" cy="-539.45" rx="43.92" ry="18"/>
<text text-anchor="middle" x="233.29" y="-536.45" font-family="Helvetica,sans-Serif" font-size="10.00" fill="#ffffff">rcmpy.config</text>
</g>
<!-- rcmpy_config&#45;&gt;rcmpy_commands_apply -->
<g id="edge7" class="edge">
<title>rcmpy_config&#45;&gt;rcmpy_commands_apply</title><style>.edge>path:hover{stroke-width:8}</style>
<path fill="none" stroke="black" d="M191.47,-533.71C140.03,-526.74 60.08,-511.62 65.29,-485.45"/>
</g>
<!-- rcmpy_entry&#45;&gt;rcmpy___main__ -->
<g id="edge8" class="edge">
<title>rcmpy_entry&#45;&gt;rcmpy___main__</title><style>.edge>path:hover{stroke-width:8}</style>
<path fill="none" stroke="black" d="M730.29,-71.7C730.29,-63.98 730.29,-54.71 730.29,-46.11"/>
<polygon fill="#b83d3d" stroke="black" points="733.79,-46.1 730.29,-36.1 726.79,-46.1 733.79,-46.1"/>
</g>
<!-- rcmpy_paths -->
<g id="node10" class="node">
<title>rcmpy_paths</title><style>.edge>path:hover{stroke-width:8}</style>
<ellipse fill="#b42d2d" stroke="black" cx="615.29" cy="-611.45" rx="42.24" ry="18"/>
<text text-anchor="middle" x="615.29" y="-608.45" font-family="Helvetica,sans-Serif" font-size="10.00" fill="#ffffff">rcmpy.paths</text>
</g>
<!-- rcmpy_paths&#45;&gt;rcmpy_commands_use -->
<g id="edge9" class="edge">
<title>rcmpy_paths&#45;&gt;rcmpy_commands_use</title><style>.edge>path:hover{stroke-width:8}</style>
<path fill="none" stroke="black" d="M622.57,-593.4C635.59,-562.9 663.16,-498.31 680.92,-456.68"/>
<polygon fill="#b42d2d" stroke="black" points="684.18,-457.97 684.89,-447.4 677.74,-455.22 684.18,-457.97"/>
</g>
<!-- rcmpy_state -->
<g id="node12" class="node">
<title>rcmpy_state</title><style>.edge>path:hover{stroke-width:8}</style>
<ellipse fill="#931a1a" stroke="black" cx="476.29" cy="-539.45" rx="40.9" ry="18"/>
<text text-anchor="middle" x="476.29" y="-536.45" font-family="Helvetica,sans-Serif" font-size="10.00" fill="#ffffff">rcmpy.state</text>
</g>
<!-- rcmpy_paths&#45;&gt;rcmpy_state -->
<g id="edge10" class="edge">
<title>rcmpy_paths&#45;&gt;rcmpy_state</title><style>.edge>path:hover{stroke-width:8}</style>
<path fill="none" stroke="black" d="M589.15,-597.28C567.21,-586.24 535.67,-570.35 511.51,-558.19"/>
<polygon fill="#b42d2d" stroke="black" points="512.82,-554.93 502.32,-553.56 509.68,-561.18 512.82,-554.93"/>
</g>
<!-- rcmpy_schemas -->
<g id="node11" class="node">
<title>rcmpy_schemas</title><style>.edge>path:hover{stroke-width:8}</style>
<ellipse fill="#9b2626" stroke="black" cx="351.29" cy="-611.45" rx="51.95" ry="18"/>
<text text-anchor="middle" x="351.29" y="-608.45" font-family="Helvetica,sans-Serif" font-size="10.00" fill="#ffffff">rcmpy.schemas</text>
</g>
<!-- rcmpy_schemas&#45;&gt;rcmpy_config -->
<g id="edge11" class="edge">
<title>rcmpy_schemas&#45;&gt;rcmpy_config</title><style>.edge>path:hover{stroke-width:8}</style>
<path fill="none" stroke="black" d="M326.27,-595.61C308.63,-585.14 284.85,-571.03 265.75,-559.71"/>
<polygon fill="#9b2626" stroke="black" points="267.46,-556.65 257.07,-554.56 263.89,-562.67 267.46,-556.65"/>
</g>
<!-- rcmpy_schemas&#45;&gt;rcmpy_state -->
<g id="edge12" class="edge">
<title>rcmpy_schemas&#45;&gt;rcmpy_state</title><style>.edge>path:hover{stroke-width:8}</style>
<path fill="none" stroke="black" d="M377.5,-595.78C396.49,-585.14 422.34,-570.67 442.83,-559.19"/>
<polygon fill="#9b2626" stroke="black" points="444.81,-562.09 451.82,-554.15 441.39,-555.99 444.81,-562.09"/>
</g>
<!-- rcmpy_state&#45;&gt;rcmpy_commands_apply -->
<g id="edge13" class="edge">
<title>rcmpy_state&#45;&gt;rcmpy_commands_apply</title><style>.edge>path:hover{stroke-width:8}</style>
<path fill="none" stroke="black" d="M471.2,-521.18C468.83,-510.78 466.99,-497.29 469.29,-485.45"/>
<path fill="none" stroke="black" d="M469.29,-484.45C471.44,-473.41 467.97,-462.41 462.39,-452.65"/>
<polygon fill="#931a1a" stroke="black" points="465.17,-450.5 456.76,-444.06 459.31,-454.34 465.17,-450.5"/>
</g>
<!-- rcmpy_state&#45;&gt;rcmpy_commands_use -->
<g id="edge14" class="edge">
<title>rcmpy_state&#45;&gt;rcmpy_commands_use</title><style>.edge>path:hover{stroke-width:8}</style>
<path fill="none" stroke="black" d="M496.7,-523.74C510.7,-513.41 529.52,-499.08 545.29,-485.45"/>
<path fill="none" stroke="black" d="M545.29,-484.45C579.46,-454.93 599.14,-467.03 640.29,-448.45 644.19,-446.69 648.2,-444.78 652.2,-442.81"/>
<polygon fill="#931a1a" stroke="black" points="654.1,-445.77 661.44,-438.14 650.94,-439.53 654.1,-445.77"/>
</g>
<!-- rcmpy_state&#45;&gt;rcmpy_commands_variant -->
<g id="edge15" class="edge">
<title>rcmpy_state&#45;&gt;rcmpy_commands_variant</title><style>.edge>path:hover{stroke-width:8}</style>
<path fill="none" stroke="black" d="M469.29,-484.45C474.72,-456.55 501.73,-440.16 528.1,-430.68"/>
<polygon fill="#931a1a" stroke="black" points="529.34,-433.95 537.74,-427.49 527.15,-427.3 529.34,-433.95"/>
</g>
<!-- rcmpy_xdg -->
<g id="node13" class="node">
<title>rcmpy_xdg</title><style>.edge>path:hover{stroke-width:8}</style>
<ellipse fill="#b83d3d" stroke="black" cx="610.29" cy="-683.45" rx="37.21" ry="18"/>
<text text-anchor="middle" x="610.29" y="-680.45" font-family="Helvetica,sans-Serif" font-size="10.00" fill="#ffffff">rcmpy.xdg</text>
</g>
<!-- rcmpy_xdg&#45;&gt;rcmpy_paths -->
<g id="edge16" class="edge">
<title>rcmpy_xdg&#45;&gt;rcmpy_paths</title><style>.edge>path:hover{stroke-width:8}</style>
<path fill="none" stroke="black" d="M611.53,-665.15C612.08,-657.43 612.74,-648.16 613.35,-639.56"/>
<polygon fill="#b83d3d" stroke="black" points="616.85,-639.78 614.07,-629.56 609.87,-639.28 616.85,-639.78"/>
</g>
<!-- vcorelib -->
<g id="node14" class="node">
<title>vcorelib</title><style>.edge>path:hover{stroke-width:8}</style>
<ellipse fill="#10f9f9" stroke="black" cx="576.29" cy="-805.56" rx="30.19" ry="18"/>
<text text-anchor="middle" x="576.29" y="-802.56" font-family="Helvetica,sans-Serif" font-size="10.00" fill="#000000">vcorelib</text>
</g>
<!-- vcorelib&#45;&gt;rcmpy_app -->
<g id="edge17" class="edge">
<title>vcorelib&#45;&gt;rcmpy_app</title><style>.edge>path:hover{stroke-width:8}</style>
<path fill="none" stroke="black" d="M601.1,-795.03C651.68,-774.07 765.65,-718.61 810.29,-629.45 825.52,-599.04 843.04,-732.57 787.29,-386.23 782.52,-356.57 776.16,-350.01 773.29,-320.11"/>
</g>
<!-- vcorelib&#45;&gt;rcmpy_commands_all -->
<g id="edge18" class="edge">
<title>vcorelib&#45;&gt;rcmpy_commands_all</title><style>.edge>path:hover{stroke-width:8}</style>
<path fill="none" stroke="black" d="M507.29,-484.45C493.96,-442.03 506.9,-426.24 526.29,-386.23 532.08,-374.28 540.58,-362.77 549.26,-352.8"/>
<polygon fill="#10f9f9" stroke="black" points="552.07,-354.9 556.21,-345.15 546.89,-350.19 552.07,-354.9"/>
</g>
<!-- vcorelib&#45;&gt;rcmpy_commands_apply -->
<g id="edge19" class="edge">
<title>vcorelib&#45;&gt;rcmpy_commands_apply</title><style>.edge>path:hover{stroke-width:8}</style>
<path fill="none" stroke="black" d="M545.29,-610.45C538.4,-580.11 550.49,-571.13 545.29,-540.45"/>
<path fill="none" stroke="black" d="M545.29,-538.45C540.45,-509.87 515.98,-513.1 507.29,-485.45"/>
<path fill="none" stroke="black" d="M507.29,-484.45C502.13,-468.01 489.67,-454.43 476.31,-443.94"/>
<polygon fill="#10f9f9" stroke="black" points="478.07,-440.89 467.93,-437.82 473.94,-446.54 478.07,-440.89"/>
</g>
<!-- vcorelib&#45;&gt;rcmpy_commands_use -->
<g id="edge20" class="edge">
<title>vcorelib&#45;&gt;rcmpy_commands_use</title><style>.edge>path:hover{stroke-width:8}</style>
<path fill="none" stroke="black" d="M545.29,-538.45C541.36,-515.23 527.47,-500.85 545.29,-485.45"/>
</g>
<!-- vcorelib&#45;&gt;rcmpy_commands_variant -->
<g id="edge21" class="edge">
<title>vcorelib&#45;&gt;rcmpy_commands_variant</title><style>.edge>path:hover{stroke-width:8}</style>
<path fill="none" stroke="black" d="M507.29,-484.45C504.07,-474.2 521.44,-458.57 540.37,-445.08"/>
<polygon fill="#10f9f9" stroke="black" points="542.58,-447.81 548.82,-439.26 538.6,-442.05 542.58,-447.81"/>
</g>
<!-- vcorelib&#45;&gt;rcmpy_config -->
<g id="edge22" class="edge">
<title>vcorelib&#45;&gt;rcmpy_config</title><style>.edge>path:hover{stroke-width:8}</style>
<path fill="none" stroke="black" d="M545.29,-737.45C500.8,-662.55 486.27,-639.47 412.29,-593.45 373.05,-569.04 321.99,-555.38 284.45,-548.07"/>
<polygon fill="#10f9f9" stroke="black" points="284.71,-544.56 274.24,-546.17 283.43,-551.44 284.71,-544.56"/>
</g>
<!-- vcorelib&#45;&gt;rcmpy_paths -->
<g id="edge23" class="edge">
<title>vcorelib&#45;&gt;rcmpy_paths</title><style>.edge>path:hover{stroke-width:8}</style>
<path fill="none" stroke="black" d="M545.29,-682.45C550.12,-661.48 566.96,-644.29 582.92,-632.18"/>
<polygon fill="#10f9f9" stroke="black" points="585.01,-634.99 591.11,-626.32 580.94,-629.29 585.01,-634.99"/>
</g>
<!-- vcorelib&#45;&gt;rcmpy_schemas -->
<g id="edge24" class="edge">
<title>vcorelib&#45;&gt;rcmpy_schemas</title><style>.edge>path:hover{stroke-width:8}</style>
<path fill="none" stroke="black" d="M569.51,-787.8C563.74,-774.16 554.87,-754.58 545.29,-738.45"/>
<path fill="none" stroke="black" d="M545.29,-737.45C508.76,-675.94 425.46,-748.36 393.29,-684.45"/>
</g>
<!-- vcorelib&#45;&gt;rcmpy_state -->
<g id="edge25" class="edge">
<title>vcorelib&#45;&gt;rcmpy_state</title><style>.edge>path:hover{stroke-width:8}</style>
<path fill="none" stroke="black" d="M545.29,-737.45C533.26,-717.2 540.01,-707.41 545.29,-684.45"/>
<path fill="none" stroke="black" d="M545.29,-682.45C552.27,-652.13 552.18,-642.79 545.29,-612.45"/>
<path fill="none" stroke="black" d="M545.29,-610.45C540.53,-589.48 523.73,-572.19 507.9,-560.04"/>
<polygon fill="#10f9f9" stroke="black" points="509.94,-557.19 499.78,-554.16 505.83,-562.86 509.94,-557.19"/>
</g>
<!-- vcorelib&#45;&gt;rcmpy_xdg -->
<g id="edge26" class="edge">
<title>vcorelib&#45;&gt;rcmpy_xdg</title><style>.edge>path:hover{stroke-width:8}</style>
<path fill="none" stroke="black" d="M545.29,-737.45C535.71,-721.31 552.26,-707.99 571.05,-698.74"/>
<polygon fill="#10f9f9" stroke="black" points="572.68,-701.84 580.35,-694.53 569.8,-695.46 572.68,-701.84"/>
</g>
<!-- vcorelib_args -->
<g id="node15" class="node">
<title>vcorelib_args</title><style>.edge>path:hover{stroke-width:8}</style>
<ellipse fill="#22e7e7" stroke="black" cx="757.29" cy="-611.45" rx="43.92" ry="18"/>
<text text-anchor="middle" x="757.29" y="-608.45" font-family="Helvetica,sans-Serif" font-size="10.00" fill="#000000">vcorelib.args</text>
</g>
<!-- vcorelib_args&#45;&gt;rcmpy_app -->
<g id="edge27" class="edge">
<title>vcorelib_args&#45;&gt;rcmpy_app</title><style>.edge>path:hover{stroke-width:8}</style>
<path fill="none" stroke="black" d="M773.29,-416.34C757.26,-376.69 777.37,-362.68 773.29,-320.11"/>
<path fill="none" stroke="black" d="M773.29,-318.11C769.77,-281.34 767.74,-271.52 773.29,-235"/>
</g>
<!-- vcorelib_args&#45;&gt;rcmpy_commands_all -->
<g id="edge28" class="edge">
<title>vcorelib_args&#45;&gt;rcmpy_commands_all</title><style>.edge>path:hover{stroke-width:8}</style>
<path fill="none" stroke="black" d="M773.29,-484.45C758.83,-458.87 784.31,-445.58 773.29,-418.34"/>
<path fill="none" stroke="black" d="M773.29,-416.34C767.36,-401.67 766.51,-396.28 754.29,-386.23 720.81,-358.68 674.56,-341.74 638.6,-331.9"/>
<polygon fill="#22e7e7" stroke="black" points="639.31,-328.47 628.74,-329.32 637.53,-335.24 639.31,-328.47"/>
</g>
<!-- vcorelib_args&#45;&gt;rcmpy_commands_apply -->
<g id="edge29" class="edge">
<title>vcorelib_args&#45;&gt;rcmpy_commands_apply</title><style>.edge>path:hover{stroke-width:8}</style>
<path fill="none" stroke="black" d="M733.32,-596.32C678.79,-564.19 544.8,-485.23 475.07,-444.13"/>
<polygon fill="#22e7e7" stroke="black" points="476.47,-440.9 466.07,-438.84 472.91,-446.93 476.47,-440.9"/>
</g>
<!-- vcorelib_args&#45;&gt;rcmpy_commands_use -->
<g id="edge30" class="edge">
<title>vcorelib_args&#45;&gt;rcmpy_commands_use</title><style>.edge>path:hover{stroke-width:8}</style>
<path fill="none" stroke="black" d="M773.29,-484.45C765.71,-469.14 752.84,-455.88 739.83,-445.34"/>
<polygon fill="#22e7e7" stroke="black" points="741.82,-442.45 731.75,-439.14 737.55,-448.01 741.82,-442.45"/>
</g>
<!-- vcorelib_args&#45;&gt;rcmpy_commands_variant -->
<g id="edge31" class="edge">
<title>vcorelib_args&#45;&gt;rcmpy_commands_variant</title><style>.edge>path:hover{stroke-width:8}</style>
<path fill="none" stroke="black" d="M765.13,-593.69C775.59,-568.73 790.86,-520.94 773.29,-485.45"/>
<path fill="none" stroke="black" d="M773.29,-484.45C743.16,-431.14 697.27,-470.89 640.29,-448.45 636.14,-446.81 631.89,-444.96 627.69,-442.99"/>
<polygon fill="#22e7e7" stroke="black" points="629.12,-439.79 618.6,-438.54 626.04,-446.08 629.12,-439.79"/>
</g>
<!-- vcorelib_dict -->
<g id="node16" class="node">
<title>vcorelib_dict</title><style>.edge>path:hover{stroke-width:8}</style>
<ellipse fill="#16f3f3" stroke="black" cx="413.29" cy="-1368.35" rx="41.24" ry="18"/>
<text text-anchor="middle" x="413.29" y="-1365.35" font-family="Helvetica,sans-Serif" font-size="10.00" fill="#000000">vcorelib.dict</text>
</g>
<!-- vcorelib_dict&#45;&gt;rcmpy_config -->
<g id="edge32" class="edge">
<title>vcorelib_dict&#45;&gt;rcmpy_config</title><style>.edge>path:hover{stroke-width:8}</style>
<path fill="none" stroke="black" d="M373.38,-1363.56C319.89,-1357.41 230.16,-1342.96 217.29,-1314.35"/>
<path fill="none" stroke="black" d="M217.29,-1313.35C205.24,-1286.56 225.19,-1275.54 217.29,-1247.24"/>
<path fill="none" stroke="black" d="M217.29,-1245.24C201.48,-1188.58 154.02,-1205.51 114.29,-1162.13"/>
<path fill="none" stroke="black" d="M114.29,-1160.13C83.71,-1126.74 55.85,-1142.26 27.29,-1107.13"/>
<path fill="none" stroke="black" d="M27.29,-1106.13C-0.53,-1071.91 -9.22,-1045.82 13.29,-1007.9 30.35,-979.17 57.9,-997.57 79.29,-971.9 138.44,-900.93 81.17,-841.91 144.29,-774.45 173.45,-743.3 218.31,-778.4 233.29,-738.45"/>
<path fill="none" stroke="black" d="M233.29,-737.45C251.28,-679.04 244.15,-606.18 238.21,-567.51"/>
<polygon fill="#16f3f3" stroke="black" points="241.65,-566.86 236.59,-557.55 234.74,-567.98 241.65,-566.86"/>
</g>
<!-- vcorelib_dict&#45;&gt;rcmpy_paths -->
<g id="edge33" class="edge">
<title>vcorelib_dict&#45;&gt;rcmpy_paths</title><style>.edge>path:hover{stroke-width:8}</style>
<path fill="none" stroke="black" d="M448.9,-1358.94C520.53,-1340.97 675.29,-1296.46 675.29,-1247.24 675.29,-1247.24 675.29,-1247.24 675.29,-737.45 675.29,-704.36 670.93,-695.13 656.29,-665.45 651.22,-655.17 643.98,-644.96 636.99,-636.28"/>
<polygon fill="#16f3f3" stroke="black" points="639.56,-633.89 630.45,-628.47 634.19,-638.38 639.56,-633.89"/>
</g>
<!-- vcorelib_dict&#45;&gt;rcmpy_schemas -->
<g id="edge34" class="edge">
<title>vcorelib_dict&#45;&gt;rcmpy_schemas</title><style>.edge>path:hover{stroke-width:8}</style>
<path fill="none" stroke="black" d="M114.29,-1160.13C114.29,-1160.13 198.29,-774.45 198.29,-774.45 233.77,-735.47 270.34,-771.63 311.29,-738.45"/>
<path fill="none" stroke="black" d="M311.29,-737.45C344.56,-709.59 414.86,-722.1 393.29,-684.45"/>
<path fill="none" stroke="black" d="M393.29,-682.45C384.76,-667.56 374.91,-651.1 366.89,-637.89"/>
<polygon fill="#16f3f3" stroke="black" points="369.86,-636.03 361.67,-629.31 363.88,-639.67 369.86,-636.03"/>
</g>
<!-- vcorelib_dict&#45;&gt;rcmpy_state -->
<g id="edge35" class="edge">
<title>vcorelib_dict&#45;&gt;rcmpy_state</title><style>.edge>path:hover{stroke-width:8}</style>
<path fill="none" stroke="black" d="M27.29,-1106.13C-22.27,-1054.14 85.92,-1036.51 117.29,-971.9 157.59,-888.92 122.4,-845.45 181.29,-774.45 202.62,-748.73 226.28,-764.43 247.29,-738.45 289.55,-686.18 242.51,-640.73 290.29,-593.45 326.05,-558.07 383.65,-545.95 425.28,-541.98"/>
<polygon fill="#16f3f3" stroke="black" points="425.82,-545.45 435.5,-541.14 425.25,-538.47 425.82,-545.45"/>
</g>
<!-- vcorelib_io -->
<g id="node19" class="node">
<title>vcorelib_io</title><style>.edge>path:hover{stroke-width:8}</style>
<ellipse fill="#05d1d1" stroke="black" cx="217.29" cy="-1161.13" rx="36.89" ry="18"/>
<text text-anchor="middle" x="217.29" y="-1158.13" font-family="Helvetica,sans-Serif" font-size="10.00" fill="#000000">vcorelib.io</text>
</g>
<!-- vcorelib_dict&#45;&gt;vcorelib_io -->
<g id="edge36" class="edge">
<title>vcorelib_dict&#45;&gt;vcorelib_io</title><style>.edge>path:hover{stroke-width:8}</style>
<path fill="none" stroke="black" d="M217.29,-1245.24C212.23,-1227.11 212.33,-1205.88 213.64,-1189.42"/>
<polygon fill="#16f3f3" stroke="black" points="217.13,-1189.66 214.64,-1179.36 210.17,-1188.97 217.13,-1189.66"/>
</g>
<!-- vcorelib_io_types -->
<g id="node20" class="node">
<title>vcorelib_io_types</title><style>.edge>path:hover{stroke-width:8}</style>
<ellipse fill="#05e5e5" stroke="black" cx="283.29" cy="-1246.24" rx="37.79" ry="31.23"/>
<text text-anchor="middle" x="283.29" y="-1255.24" font-family="Helvetica,sans-Serif" font-size="10.00" fill="#000000">vcorelib.</text>
<text text-anchor="middle" x="283.29" y="-1243.24" font-family="Helvetica,sans-Serif" font-size="10.00" fill="#000000">io.</text>
<text text-anchor="middle" x="283.29" y="-1231.24" font-family="Helvetica,sans-Serif" font-size="10.00" fill="#000000">types</text>
</g>
<!-- vcorelib_dict&#45;&gt;vcorelib_io_types -->
<g id="edge37" class="edge">
<title>vcorelib_dict&#45;&gt;vcorelib_io_types</title><style>.edge>path:hover{stroke-width:8}</style>
<path fill="none" stroke="black" d="M217.29,-1313.35C213.05,-1303.93 229.4,-1287.49 246.88,-1273.37"/>
<polygon fill="#16f3f3" stroke="black" points="249.21,-1276 254.93,-1267.08 244.89,-1270.48 249.21,-1276"/>
</g>
<!-- vcorelib_dict_cache -->
<g id="node17" class="node">
<title>vcorelib_dict_cache</title><style>.edge>path:hover{stroke-width:8}</style>
<ellipse fill="#439d9d" stroke="black" cx="609.29" cy="-1039.01" rx="37.79" ry="31.23"/>
<text text-anchor="middle" x="609.29" y="-1048.01" font-family="Helvetica,sans-Serif" font-size="10.00" fill="#000000">vcorelib.</text>
<text text-anchor="middle" x="609.29" y="-1036.01" font-family="Helvetica,sans-Serif" font-size="10.00" fill="#000000">dict.</text>
<text text-anchor="middle" x="609.29" y="-1024.01" font-family="Helvetica,sans-Serif" font-size="10.00" fill="#000000">cache</text>
</g>
<!-- vcorelib_dict_cache&#45;&gt;rcmpy_state -->
<g id="edge38" class="edge">
<title>vcorelib_dict_cache&#45;&gt;rcmpy_state</title><style>.edge>path:hover{stroke-width:8}</style>
<path fill="none" stroke="black" d="M606.3,-1007.82C602.94,-981.24 596.19,-941.86 583.29,-909.68 569.03,-874.08 551.61,-872.25 537.29,-836.68 499.32,-742.35 483.89,-621.22 478.63,-567.81"/>
<polygon fill="#439d9d" stroke="black" points="482.1,-567.4 477.68,-557.77 475.13,-568.06 482.1,-567.4"/>
</g>
<!-- vcorelib_dict_codec -->
<g id="node18" class="node">
<title>vcorelib_dict_codec</title><style>.edge>path:hover{stroke-width:8}</style>
<ellipse fill="#339999" stroke="black" cx="245.29" cy="-805.56" rx="37.79" ry="31.23"/>
<text text-anchor="middle" x="245.29" y="-814.56" font-family="Helvetica,sans-Serif" font-size="10.00" fill="#ffffff">vcorelib.</text>
<text text-anchor="middle" x="245.29" y="-802.56" font-family="Helvetica,sans-Serif" font-size="10.00" fill="#ffffff">dict.</text>
<text text-anchor="middle" x="245.29" y="-790.56" font-family="Helvetica,sans-Serif" font-size="10.00" fill="#ffffff">codec</text>
</g>
<!-- vcorelib_dict_codec&#45;&gt;rcmpy_config -->
<g id="edge39" class="edge">
<title>vcorelib_dict_codec&#45;&gt;rcmpy_config</title><style>.edge>path:hover{stroke-width:8}</style>
<path fill="none" stroke="black" d="M233.55,-775.98C230.34,-764.11 228.83,-750.36 233.29,-738.45"/>
</g>
<!-- vcorelib_dict_codec&#45;&gt;rcmpy_schemas -->
<g id="edge40" class="edge">
<title>vcorelib_dict_codec&#45;&gt;rcmpy_schemas</title><style>.edge>path:hover{stroke-width:8}</style>
<path fill="none" stroke="black" d="M267.49,-780.19C279.84,-767.2 295.81,-751.28 311.29,-738.45"/>
</g>
<!-- vcorelib_io&#45;&gt;rcmpy_commands_apply -->
<g id="edge41" class="edge">
<title>vcorelib_io&#45;&gt;rcmpy_commands_apply</title><style>.edge>path:hover{stroke-width:8}</style>
<path fill="none" stroke="black" d="M196.22,-1146.39C150.65,-1114.78 48.34,-1032.59 65.29,-941.79"/>
</g>
<!-- vcorelib_io&#45;&gt;rcmpy_state -->
<g id="edge42" class="edge">
<title>vcorelib_io&#45;&gt;rcmpy_state</title><style>.edge>path:hover{stroke-width:8}</style>
<path fill="none" stroke="black" d="M353.29,-1038.01C306.24,-884.13 383.06,-837.97 431.29,-684.45"/>
<path fill="none" stroke="black" d="M431.29,-682.45C434.9,-640.69 451.98,-594.88 464.03,-566.9"/>
<polygon fill="#05d1d1" stroke="black" points="467.37,-567.99 468.2,-557.43 460.96,-565.17 467.37,-567.99"/>
</g>
<!-- vcorelib_io&#45;&gt;vcorelib_dict_cache -->
<g id="edge43" class="edge">
<title>vcorelib_io&#45;&gt;vcorelib_dict_cache</title><style>.edge>path:hover{stroke-width:8}</style>
<path fill="none" stroke="black" d="M247.72,-1150.8C316.38,-1129.76 483.6,-1078.53 564.28,-1053.8"/>
<polygon fill="#05d1d1" stroke="black" points="565.61,-1057.06 574.15,-1050.78 563.56,-1050.37 565.61,-1057.06"/>
</g>
<!-- vcorelib_io&#45;&gt;vcorelib_dict_codec -->
<g id="edge44" class="edge">
<title>vcorelib_io&#45;&gt;vcorelib_dict_codec</title><style>.edge>path:hover{stroke-width:8}</style>
<path fill="none" stroke="black" d="M215.02,-1143.11C214.17,-1132.56 214.07,-1118.84 217.29,-1107.13"/>
</g>
<!-- vcorelib_schemas -->
<g id="node22" class="node">
<title>vcorelib_schemas</title><style>.edge>path:hover{stroke-width:8}</style>
<ellipse fill="#20b6b6" stroke="black" cx="285.29" cy="-940.79" rx="39.72" ry="22.76"/>
<text text-anchor="middle" x="285.29" y="-943.79" font-family="Helvetica,sans-Serif" font-size="10.00" fill="#000000">vcorelib.</text>
<text text-anchor="middle" x="285.29" y="-931.79" font-family="Helvetica,sans-Serif" font-size="10.00" fill="#000000">schemas</text>
</g>
<!-- vcorelib_io&#45;&gt;vcorelib_schemas -->
<g id="edge45" class="edge">
<title>vcorelib_io&#45;&gt;vcorelib_schemas</title><style>.edge>path:hover{stroke-width:8}</style>
<path fill="none" stroke="black" d="M251.51,-1154.37C284.63,-1147.49 335.02,-1133.45 371.29,-1107.13"/>
<path fill="none" stroke="black" d="M371.29,-1106.13C395.94,-1088.24 362.2,-1069.14 353.29,-1040.01"/>
<path fill="none" stroke="black" d="M353.29,-1038.01C345.25,-1011.72 326.91,-986.51 311.3,-968.49"/>
<polygon fill="#05d1d1" stroke="black" points="313.64,-965.86 304.36,-960.75 308.42,-970.53 313.64,-965.86"/>
</g>
<!-- vcorelib_schemas_base -->
<g id="node23" class="node">
<title>vcorelib_schemas_base</title><style>.edge>path:hover{stroke-width:8}</style>
<ellipse fill="#21bfbf" stroke="black" cx="423.29" cy="-1039.01" rx="41.65" ry="31.23"/>
<text text-anchor="middle" x="423.29" y="-1048.01" font-family="Helvetica,sans-Serif" font-size="10.00" fill="#000000">vcorelib.</text>
<text text-anchor="middle" x="423.29" y="-1036.01" font-family="Helvetica,sans-Serif" font-size="10.00" fill="#000000">schemas.</text>
<text text-anchor="middle" x="423.29" y="-1024.01" font-family="Helvetica,sans-Serif" font-size="10.00" fill="#000000">base</text>
</g>
<!-- vcorelib_io&#45;&gt;vcorelib_schemas_base -->
<g id="edge46" class="edge">
<title>vcorelib_io&#45;&gt;vcorelib_schemas_base</title><style>.edge>path:hover{stroke-width:8}</style>
<path fill="none" stroke="black" d="M371.29,-1106.13C382.5,-1097.99 392.54,-1086.82 400.74,-1075.96"/>
<polygon fill="#05d1d1" stroke="black" points="403.63,-1077.94 406.64,-1067.78 397.95,-1073.85 403.63,-1077.94"/>
</g>
<!-- vcorelib_schemas_json -->
<g id="node24" class="node">
<title>vcorelib_schemas_json</title><style>.edge>path:hover{stroke-width:8}</style>
<ellipse fill="#3d8f8f" stroke="black" cx="461.29" cy="-940.79" rx="41.65" ry="31.23"/>
<text text-anchor="middle" x="461.29" y="-949.79" font-family="Helvetica,sans-Serif" font-size="10.00" fill="#ffffff">vcorelib.</text>
<text text-anchor="middle" x="461.29" y="-937.79" font-family="Helvetica,sans-Serif" font-size="10.00" fill="#ffffff">schemas.</text>
<text text-anchor="middle" x="461.29" y="-925.79" font-family="Helvetica,sans-Serif" font-size="10.00" fill="#ffffff">json</text>
</g>
<!-- vcorelib_io&#45;&gt;vcorelib_schemas_json -->
<g id="edge47" class="edge">
<title>vcorelib_io&#45;&gt;vcorelib_schemas_json</title><style>.edge>path:hover{stroke-width:8}</style>
<path fill="none" stroke="black" d="M371.29,-1106.13C421.21,-1069.91 499.36,-1101.39 493.29,-1040.01"/>
<path fill="none" stroke="black" d="M493.29,-1038.01C491.35,-1018.39 484.98,-997.52 478.43,-980.24"/>
<polygon fill="#05d1d1" stroke="black" points="481.52,-978.54 474.59,-970.53 475.01,-981.11 481.52,-978.54"/>
</g>
<!-- vcorelib_io_types&#45;&gt;rcmpy_commands_apply -->
<g id="edge48" class="edge">
<title>vcorelib_io_types&#45;&gt;rcmpy_commands_apply</title><style>.edge>path:hover{stroke-width:8}</style>
<path fill="none" stroke="black" d="M252.9,-1227.5C221.04,-1208.87 175.07,-1181.89 171.29,-1179.13 162.15,-1172.44 155.79,-1172.91 152.29,-1162.13"/>
<path fill="none" stroke="black" d="M152.29,-1160.13C135.52,-1108.36 89.88,-1120.49 69.29,-1070.13 47.7,-1017.3 58.2,-998.41 65.29,-941.79"/>
<path fill="none" stroke="black" d="M65.29,-939.79C61.69,-880.69 65.29,-865.77 65.29,-806.56 65.29,-806.56 65.29,-806.56 65.29,-610.45 65.29,-554.9 54.45,-539.94 65.29,-485.45"/>
<path fill="none" stroke="black" d="M65.29,-484.45C71.47,-454.25 272.05,-432.32 373.59,-423.13"/>
<polygon fill="#05e5e5" stroke="black" points="374.04,-426.6 383.69,-422.22 373.42,-419.63 374.04,-426.6"/>
</g>
<!-- vcorelib_io_types&#45;&gt;rcmpy_state -->
<g id="edge49" class="edge">
<title>vcorelib_io_types&#45;&gt;rcmpy_state</title><style>.edge>path:hover{stroke-width:8}</style>
<path fill="none" stroke="black" d="M320.89,-1243.27C394.14,-1237.11 549.83,-1211.72 561.29,-1107.13"/>
<path fill="none" stroke="black" d="M561.29,-1106.13C568.29,-1084.75 518.83,-931.2 512.29,-909.68 496.84,-858.78 420.95,-736.62 431.29,-684.45"/>
</g>
<!-- vcorelib_io_types&#45;&gt;vcorelib_dict_cache -->
<g id="edge50" class="edge">
<title>vcorelib_io_types&#45;&gt;vcorelib_dict_cache</title><style>.edge>path:hover{stroke-width:8}</style>
<path fill="none" stroke="black" d="M561.29,-1106.13C562.73,-1093 569.47,-1080.67 577.47,-1070.31"/>
<polygon fill="#05e5e5" stroke="black" points="580.33,-1072.34 584.07,-1062.43 574.97,-1067.84 580.33,-1072.34"/>
</g>
<!-- vcorelib_io_types&#45;&gt;vcorelib_dict_codec -->
<g id="edge51" class="edge">
<title>vcorelib_io_types&#45;&gt;vcorelib_dict_codec</title><style>.edge>path:hover{stroke-width:8}</style>
<path fill="none" stroke="black" d="M152.29,-1160.13C140.8,-1124.67 207.39,-1143.06 217.29,-1107.13"/>
<path fill="none" stroke="black" d="M217.29,-1106.13C240.59,-1021.56 195.39,-987.27 236.29,-909.68 247.91,-887.63 294.54,-893.4 279.29,-873.68"/>
<path fill="none" stroke="black" d="M279.29,-872.68C272.58,-864.14 266.6,-854.08 261.61,-844.41"/>
<polygon fill="#05e5e5" stroke="black" points="264.69,-842.75 257.13,-835.33 258.42,-845.85 264.69,-842.75"/>
</g>
<!-- vcorelib_io_types&#45;&gt;vcorelib_io -->
<g id="edge52" class="edge">
<title>vcorelib_io_types&#45;&gt;vcorelib_io</title><style>.edge>path:hover{stroke-width:8}</style>
<path fill="none" stroke="black" d="M263.13,-1219.85C254.64,-1209.15 244.8,-1196.76 236.42,-1186.21"/>
<polygon fill="#05e5e5" stroke="black" points="239.02,-1183.86 230.06,-1178.21 233.54,-1188.22 239.02,-1183.86"/>
</g>
<!-- vcorelib_io_types&#45;&gt;vcorelib_schemas -->
<g id="edge53" class="edge">
<title>vcorelib_io_types&#45;&gt;vcorelib_schemas</title><style>.edge>path:hover{stroke-width:8}</style>
<path fill="none" stroke="black" d="M152.29,-1160.13C149.46,-1149.16 162.17,-1149.85 171.29,-1143.13 196.33,-1124.68 211.91,-1131.44 231.29,-1107.13 262.73,-1067.69 276.13,-1009.34 281.65,-973.54"/>
<polygon fill="#05e5e5" stroke="black" points="285.11,-974.03 283.06,-963.64 278.18,-973.04 285.11,-974.03"/>
</g>
<!-- vcorelib_io_types&#45;&gt;vcorelib_schemas_base -->
<g id="edge54" class="edge">
<title>vcorelib_io_types&#45;&gt;vcorelib_schemas_base</title><style>.edge>path:hover{stroke-width:8}</style>
<path fill="none" stroke="black" d="M320,-1238.35C359.35,-1228.78 419.86,-1207.27 447.29,-1162.13"/>
<path fill="none" stroke="black" d="M447.29,-1160.13C462.47,-1135.15 454.43,-1102.37 443.73,-1077.37"/>
<polygon fill="#05e5e5" stroke="black" points="446.88,-1075.84 439.54,-1068.2 440.51,-1078.75 446.88,-1075.84"/>
</g>
<!-- vcorelib_io_types&#45;&gt;vcorelib_schemas_json -->
<g id="edge55" class="edge">
<title>vcorelib_io_types&#45;&gt;vcorelib_schemas_json</title><style>.edge>path:hover{stroke-width:8}</style>
<path fill="none" stroke="black" d="M447.29,-1160.13C485.75,-1117.83 498.92,-1096.9 493.29,-1040.01"/>
</g>
<!-- vcorelib_paths -->
<g id="node21" class="node">
<title>vcorelib_paths</title><style>.edge>path:hover{stroke-width:8}</style>
<ellipse fill="#06f9f9" stroke="black" cx="618.29" cy="-1368.35" rx="46.95" ry="18"/>
<text text-anchor="middle" x="618.29" y="-1365.35" font-family="Helvetica,sans-Serif" font-size="10.00" fill="#000000">vcorelib.paths</text>
</g>
<!-- vcorelib_paths&#45;&gt;rcmpy_state -->
<g id="edge56" class="edge">
<title>vcorelib_paths&#45;&gt;rcmpy_state</title><style>.edge>path:hover{stroke-width:8}</style>
<path fill="none" stroke="black" d="M713.29,-939.79C701.34,-784.91 770.38,-708.76 666.29,-593.45 624.68,-547.36 590.97,-574.62 531.29,-557.45 527.02,-556.22 522.56,-554.9 518.13,-553.57"/>
<polygon fill="#06f9f9" stroke="black" points="519.1,-550.2 508.51,-550.64 517.06,-556.9 519.1,-550.2"/>
</g>
<!-- vcorelib_paths&#45;&gt;rcmpy_xdg -->
<g id="edge57" class="edge">
<title>vcorelib_paths&#45;&gt;rcmpy_xdg</title><style>.edge>path:hover{stroke-width:8}</style>
<path fill="none" stroke="black" d="M713.29,-1038.01C694.52,-999.59 724.12,-983.16 713.29,-941.79"/>
<path fill="none" stroke="black" d="M713.29,-939.79C690.51,-852.76 645.56,-755.7 623.35,-710.39"/>
<polygon fill="#06f9f9" stroke="black" points="626.41,-708.69 618.84,-701.27 620.14,-711.79 626.41,-708.69"/>
</g>
<!-- vcorelib_paths&#45;&gt;vcorelib_dict_cache -->
<g id="edge58" class="edge">
<title>vcorelib_paths&#45;&gt;vcorelib_dict_cache</title><style>.edge>path:hover{stroke-width:8}</style>
<path fill="none" stroke="black" d="M658.64,-1359.09C681.43,-1351.83 706.64,-1338.48 713.29,-1314.35"/>
<path fill="none" stroke="black" d="M713.29,-1313.35C717.85,-1296.8 705.45,-1293.38 699.29,-1277.35 672.37,-1207.26 641.42,-1125.34 623.73,-1078.38"/>
<polygon fill="#06f9f9" stroke="black" points="626.96,-1077.03 620.16,-1068.91 620.41,-1079.5 626.96,-1077.03"/>
</g>
<!-- vcorelib_paths&#45;&gt;vcorelib_dict_codec -->
<g id="edge59" class="edge">
<title>vcorelib_paths&#45;&gt;vcorelib_dict_codec</title><style>.edge>path:hover{stroke-width:8}</style>
<path fill="none" stroke="black" d="M713.29,-1313.35C763.93,-1202.93 757.63,-1153.12 713.29,-1040.01"/>
<path fill="none" stroke="black" d="M713.29,-1038.01C659.02,-946.97 611.46,-947.09 512.29,-909.68 463.27,-891.18 311.69,-914.85 279.29,-873.68"/>
</g>
<!-- vcorelib_paths&#45;&gt;vcorelib_io -->
<g id="edge60" class="edge">
<title>vcorelib_paths&#45;&gt;vcorelib_io</title><style>.edge>path:hover{stroke-width:8}</style>
<path fill="none" stroke="black" d="M523.29,-1313.35C497.75,-1298.83 533.82,-1274.67 523.29,-1247.24"/>
<path fill="none" stroke="black" d="M523.29,-1245.24C504.5,-1196.3 344.31,-1174.18 263.51,-1166.06"/>
<polygon fill="#06f9f9" stroke="black" points="263.42,-1162.53 253.13,-1165.05 262.74,-1169.5 263.42,-1162.53"/>
</g>
<!-- vcorelib_paths&#45;&gt;vcorelib_io_types -->
<g id="edge61" class="edge">
<title>vcorelib_paths&#45;&gt;vcorelib_io_types</title><style>.edge>path:hover{stroke-width:8}</style>
<path fill="none" stroke="black" d="M592.42,-1353.07C573.28,-1342.46 546.61,-1327.61 523.29,-1314.35"/>
<path fill="none" stroke="black" d="M523.29,-1313.35C461.78,-1278.38 380.79,-1261.1 330.39,-1253.19"/>
<polygon fill="#06f9f9" stroke="black" points="330.83,-1249.71 320.42,-1251.68 329.79,-1256.63 330.83,-1249.71"/>
</g>
<!-- vcorelib_paths&#45;&gt;vcorelib_schemas_base -->
<g id="edge62" class="edge">
<title>vcorelib_paths&#45;&gt;vcorelib_schemas_base</title><style>.edge>path:hover{stroke-width:8}</style>
<path fill="none" stroke="black" d="M523.29,-1245.24C499.4,-1183.02 498.36,-1165.09 467.29,-1106.13 461.77,-1095.66 455.01,-1084.77 448.45,-1074.93"/>
<polygon fill="#06f9f9" stroke="black" points="451.3,-1072.89 442.78,-1066.59 445.51,-1076.82 451.3,-1072.89"/>
</g>
<!-- vcorelib_paths&#45;&gt;vcorelib_schemas_json -->
<g id="edge63" class="edge">
<title>vcorelib_paths&#45;&gt;vcorelib_schemas_json</title><style>.edge>path:hover{stroke-width:8}</style>
<path fill="none" stroke="black" d="M523.29,-1245.24C508.83,-1210.77 563.06,-1214.45 575.29,-1179.13 585.9,-1148.47 589.29,-1135.4 575.29,-1106.13 555.09,-1063.89 498.13,-1086.58 493.29,-1040.01"/>
</g>
<!-- vcorelib_schemas&#45;&gt;rcmpy_schemas -->
<g id="edge64" class="edge">
<title>vcorelib_schemas&#45;&gt;rcmpy_schemas</title><style>.edge>path:hover{stroke-width:8}</style>
<path fill="none" stroke="black" d="M287.91,-918.04C294.15,-866.26 309.57,-739.88 311.29,-738.45"/>
</g>
<!-- vcorelib_schemas&#45;&gt;vcorelib_dict_codec -->
<g id="edge65" class="edge">
<title>vcorelib_schemas&#45;&gt;vcorelib_dict_codec</title><style>.edge>path:hover{stroke-width:8}</style>
<path fill="none" stroke="black" d="M288.89,-918C289.97,-903.96 288.88,-886.08 279.29,-873.68"/>
</g>
<!-- vcorelib_schemas_base&#45;&gt;rcmpy_schemas -->
<g id="edge66" class="edge">
<title>vcorelib_schemas_base&#45;&gt;rcmpy_schemas</title><style>.edge>path:hover{stroke-width:8}</style>
<path fill="none" stroke="black" d="M391.29,-939.79C386.49,-924.71 399.4,-921.15 410.29,-909.68 429.4,-889.56 464.73,-901.21 461.29,-873.68"/>
<path fill="none" stroke="black" d="M461.29,-872.68C458.54,-850.61 403.29,-704.31 393.29,-684.45"/>
</g>
<!-- vcorelib_schemas_base&#45;&gt;vcorelib_dict_codec -->
<g id="edge67" class="edge">
<title>vcorelib_schemas_base&#45;&gt;vcorelib_dict_codec</title><style>.edge>path:hover{stroke-width:8}</style>
<path fill="none" stroke="black" d="M413.29,-1008.6C406.88,-989.58 398.44,-964.27 391.29,-941.79"/>
<path fill="none" stroke="black" d="M391.29,-939.79C373.77,-884.71 314.64,-919.41 279.29,-873.68"/>
</g>
<!-- vcorelib_schemas_base&#45;&gt;vcorelib_schemas -->
<g id="edge68" class="edge">
<title>vcorelib_schemas_base&#45;&gt;vcorelib_schemas</title><style>.edge>path:hover{stroke-width:8}</style>
<path fill="none" stroke="black" d="M393.35,-1017.13C371.14,-1001.65 340.87,-980.54 318.02,-964.61"/>
<polygon fill="#21bfbf" stroke="black" points="319.87,-961.63 309.66,-958.78 315.86,-967.37 319.87,-961.63"/>
</g>
<!-- vcorelib_schemas_base&#45;&gt;vcorelib_schemas_json -->
<g id="edge69" class="edge">
<title>vcorelib_schemas_base&#45;&gt;vcorelib_schemas_json</title><style>.edge>path:hover{stroke-width:8}</style>
<path fill="none" stroke="black" d="M434.8,-1008.88C438.37,-999.84 442.36,-989.73 446.14,-980.16"/>
<polygon fill="#21bfbf" stroke="black" points="449.41,-981.41 449.83,-970.82 442.9,-978.84 449.41,-981.41"/>
</g>
<!-- vcorelib_schemas_json&#45;&gt;rcmpy_schemas -->
<g id="edge70" class="edge">
<title>vcorelib_schemas_json&#45;&gt;rcmpy_schemas</title><style>.edge>path:hover{stroke-width:8}</style>
<path fill="none" stroke="black" d="M462.86,-909.41C463.03,-898.15 462.74,-885.29 461.29,-873.68"/>
</g>
</g>
</svg>
