<?xml version="1.0" encoding="UTF-8" standalone="no"?>
<!DOCTYPE svg PUBLIC "-//W3C//DTD SVG 1.1//EN"
 "http://www.w3.org/Graphics/SVG/1.1/DTD/svg11.dtd">
<!-- Generated by graphviz version 6.0.0~dev.20220830.0354 (20220830.0354)
 -->
<!-- Title: G Pages: 1 -->
<svg width="116pt" height="188pt"
 viewBox="0.00 0.00 116.15 188.00" xmlns="http://www.w3.org/2000/svg" xmlns:xlink="http://www.w3.org/1999/xlink">
<g id="graph0" class="graph" transform="scale(1 1) rotate(0) translate(4 184)">
<title>G</title><style>.edge>path:hover{stroke-width:8}</style>
<polygon fill="white" stroke="none" points="-4,4 -4,-184 112.15,-184 112.15,4 -4,4"/>
<!-- rcmpy___main__ -->
<g id="node1" class="node">
<title>rcmpy___main__</title><style>.edge>path:hover{stroke-width:8}</style>
<ellipse fill="#ac4949" stroke="black" cx="54.07" cy="-18" rx="54.15" ry="18"/>
<text text-anchor="middle" x="54.07" y="-15" font-family="Helvetica,sans-Serif" font-size="10.00" fill="#ffffff">rcmpy.__main__</text>
</g>
<!-- rcmpy_app -->
<g id="node2" class="node">
<title>rcmpy_app</title><style>.edge>path:hover{stroke-width:8}</style>
<ellipse fill="#c24747" stroke="black" cx="54.07" cy="-162" rx="37.89" ry="18"/>
<text text-anchor="middle" x="54.07" y="-159" font-family="Helvetica,sans-Serif" font-size="10.00" fill="#ffffff">rcmpy.app</text>
</g>
<!-- rcmpy_entry -->
<g id="node3" class="node">
<title>rcmpy_entry</title><style>.edge>path:hover{stroke-width:8}</style>
<ellipse fill="#b83d3d" stroke="black" cx="54.07" cy="-90" rx="41.06" ry="18"/>
<text text-anchor="middle" x="54.07" y="-87" font-family="Helvetica,sans-Serif" font-size="10.00" fill="#ffffff">rcmpy.entry</text>
</g>
<!-- rcmpy_app&#45;&gt;rcmpy_entry -->
<g id="edge1" class="edge">
<title>rcmpy_app&#45;&gt;rcmpy_entry</title><style>.edge>path:hover{stroke-width:8}</style>
<path fill="none" stroke="black" d="M54.07,-143.7C54.07,-135.98 54.07,-126.71 54.07,-118.11"/>
<polygon fill="#c24747" stroke="black" points="57.57,-118.1 54.07,-108.1 50.57,-118.1 57.57,-118.1"/>
</g>
<!-- rcmpy_entry&#45;&gt;rcmpy___main__ -->
<g id="edge2" class="edge">
<title>rcmpy_entry&#45;&gt;rcmpy___main__</title><style>.edge>path:hover{stroke-width:8}</style>
<path fill="none" stroke="black" d="M54.07,-71.7C54.07,-63.98 54.07,-54.71 54.07,-46.11"/>
<polygon fill="#b83d3d" stroke="black" points="57.57,-46.1 54.07,-36.1 50.57,-46.1 57.57,-46.1"/>
</g>
</g>
</svg>
